<?xml version="1.0" encoding="UTF-8"?>
<svg width="90px" height="83px" viewBox="0 0 90 83" version="1.1" xmlns="http://www.w3.org/2000/svg" xmlns:xlink="http://www.w3.org/1999/xlink">
    <title>271132</title>
    <g id="Page-1" stroke="none" stroke-width="1" fill="none" fill-rule="evenodd">
        <g id="my-design" transform="translate(-783.000000, -620.000000)" fill-rule="nonzero">
            <g id="Cards" transform="translate(165.000000, 508.000000)">
                <g id="card-3" transform="translate(560.000000, 92.000000)">
                    <g id="271132" transform="translate(58.000000, 20.000000)">
                        <g id="Group" transform="translate(4.385965, 13.157895)" fill="#0E9AA7">
                            <path d="M82.3331579,28.6692982 L83.1710526,29.9252632 L85.4119298,5.80578947 C85.6861404,3.25508772 83.8415789,0.964561404 81.2892982,0.690350877 L76.1475439,0.13754386 L76.1475439,31.6582456 C80.5212281,31.1519298 82.3331579,28.6692982 82.3331579,28.6692982" id="Shape"></path>
                            <path d="M51.6552632,45.7049123 L0.261754386,45.7049123 C0.215263158,45.7049123 0.173508772,45.6924561 0.128596491,45.6910526 L0.0449122807,46.4731579 C-0.229122807,49.0254386 1.61684211,51.3159649 4.16754386,51.59 L53.9164912,57.1745614 C51.6273684,53.4066667 50.87,48.752807 51.6552632,45.7049123" id="Shape"></path>
                        </g>
                        <path d="M56.0659649,58.747193 C56.7257895,56.3389474 57.4287719,54.122807 57.4938596,53.8192982 C58.4710526,49.3296491 55.7454386,46.4738596 55.7454386,46.4738596 L58.842807,41.8277193 C58.842807,41.8277193 61.0589474,44.9250877 66.5863158,44.9250877 C72.1136842,44.9250877 72.7810526,41.8277193 72.7810526,41.8277193 C72.7810526,41.8277193 73.4485965,44.9250877 78.9757895,44.9250877 C79.5364912,44.9250877 80.0398246,44.8740351 80.5322807,44.8166667 L80.5322807,4.65894737 C80.5322807,2.09280702 78.4524561,0.0128070175 75.8861404,0.0128070175 L4.64614035,0.0128070175 C2.08140351,0.0128070175 0,2.09263158 0,4.65894737 L0,54.2173684 C0,56.7835088 2.08140351,58.8635088 4.64614035,58.8635088 L56.0412281,58.8635088 C56.0505263,58.8261404 56.0566667,58.784386 56.0659649,58.747193" id="Shape" fill="#26B99A"></path>
                        <path d="M72.7808772,41.827193 C72.7808772,41.827193 73.4484211,44.9245614 78.975614,44.9245614 C84.502807,44.9245614 86.7191228,41.827193 86.7191228,41.827193 L89.8164912,46.4733333 C89.8164912,46.4733333 87.0907018,49.3307018 88.0664912,53.8203509 C88.1331579,54.1222807 88.8361404,56.3385965 89.4959649,58.7468421 C90.7287719,63.2550877 88.5017544,71.4615789 82.8303509,74.9107018 C82.7963158,74.9324561 82.7575439,74.9478947 82.7219298,74.9664912 L81.4085965,75.6215789 C81.4085965,75.6215789 72.7808772,79.2626316 72.7808772,82.0936842 C72.7808772,79.2626316 64.1531579,75.6215789 64.1531579,75.6215789 L62.8398246,74.9664912 C62.8042105,74.9478947 62.7654386,74.9324561 62.7314035,74.9107018 C57.06,71.4617544 54.8329825,63.2552632 56.0657895,58.7468421 C56.725614,56.3385965 57.4285965,54.1224561 57.4952632,53.8203509 C58.4708772,49.3307018 55.7452632,46.4733333 55.7452632,46.4733333 L58.8426316,41.827193 C58.8426316,41.827193 61.0587719,44.9245614 66.5861404,44.9245614 C72.1135088,44.9245614 72.7808772,41.827193 72.7808772,41.827193" id="Shape" fill="#F0C419"></path>
                        <g id="Group" transform="translate(0.000000, 7.719298)" fill="#128972">
                            <polygon id="Shape" points="0.000701754386 12.4261404 80.5331579 12.4261404 80.5331579 0.0364912281 0.000701754386 0.0364912281"></polygon>
                            <path d="M18.5850877,23.2670175 L6.19561404,23.2670175 C5.33912281,23.2670175 4.64684211,22.5731579 4.64684211,21.7182456 C4.64684211,20.8633333 5.33912281,20.1694737 6.19561404,20.1694737 L18.5852632,20.1694737 C19.4417544,20.1694737 20.1340351,20.8633333 20.1340351,21.7182456 C20.1338596,22.5731579 19.4415789,23.2670175 18.5850877,23.2670175" id="Shape"></path>
                            <path d="M37.1694737,23.2670175 L24.7798246,23.2670175 C23.9233333,23.2670175 23.2310526,22.5731579 23.2310526,21.7182456 C23.2310526,20.8633333 23.9233333,20.1694737 24.7798246,20.1694737 L37.1694737,20.1694737 C38.0259649,20.1694737 38.7182456,20.8633333 38.7182456,21.7182456 C38.7182456,22.5731579 38.0259649,23.2670175 37.1694737,23.2670175" id="Shape"></path>
                            <path d="M26.3285965,29.4617544 L6.19561404,29.4617544 C5.33912281,29.4617544 4.64684211,28.7678947 4.64684211,27.9129825 C4.64684211,27.0580702 5.33912281,26.3642105 6.19561404,26.3642105 L26.3287719,26.3642105 C27.1852632,26.3642105 27.8775439,27.0580702 27.8775439,27.9129825 C27.8775439,28.7678947 27.1850877,29.4617544 26.3285965,29.4617544" id="Shape"></path>
                            <path d="M37.1694737,29.4617544 L32.5233333,29.4617544 C31.6668421,29.4617544 30.9745614,28.7678947 30.9745614,27.9129825 C30.9745614,27.0580702 31.6668421,26.3642105 32.5233333,26.3642105 L37.1694737,26.3642105 C38.0259649,26.3642105 38.7182456,27.0580702 38.7182456,27.9129825 C38.7182456,28.7678947 38.0259649,29.4617544 37.1694737,29.4617544" id="Shape"></path>
                            <path d="M55.7450877,38.7540351 L58.8424561,34.1078947 C58.8424561,34.1078947 61.0585965,37.2052632 66.5859649,37.2052632 C72.1133333,37.2052632 72.7807018,34.1078947 72.7807018,34.1078947 C72.7807018,34.1078947 72.7838596,34.1203509 72.79,34.1419298 L72.79,27.9657895 L48.0108772,27.9657895 L48.0108772,41.8514035 L57.3805263,41.8514035 C56.8229825,39.8907018 55.7450877,38.7540351 55.7450877,38.7540351" id="Shape"></path>
                        </g>
                        <polygon id="Shape" fill="#FFFFFF" points="72.7896491 51.1194737 75.8421053 57.3064912 82.0817544 57.3142105 77.73 63.1140351 78.984386 69.7038596 72.7896491 66.7024561 66.5949123 69.7038596 67.8492982 63.1140351 63.4973684 57.3142105 69.737193 57.3064912"></polygon>
                    </g>
                </g>
            </g>
        </g>
    </g>
</svg>