<?xml version="1.0" encoding="UTF-8"?>
<svg width="93px" height="76px" viewBox="0 0 93 76" version="1.1" xmlns="http://www.w3.org/2000/svg" xmlns:xlink="http://www.w3.org/1999/xlink">
    <title>943710</title>
    <g id="Page-1" stroke="none" stroke-width="1" fill="none" fill-rule="evenodd">
        <g id="my-design" transform="translate(-224.000000, -623.000000)" fill-rule="nonzero">
            <g id="Cards" transform="translate(165.000000, 508.000000)">
                <g id="card-1" transform="translate(0.000000, 92.000000)">
                    <g id="943710" transform="translate(59.000000, 23.000000)">
                        <rect id="Rectangle-path" fill="#95A5A5" x="51.2103684" y="54.5110526" width="12.8026374" height="19.2038655"></rect>
                        <path d="M35.207117,75.3151345 L78.4158596,75.3151345 L78.4158596,72.1145205 C78.4106023,70.3489708 76.9807953,68.9189825 75.2152456,68.9139064 L35.207117,68.9139064 L35.207117,75.3151345 L35.207117,75.3151345 Z" id="Shape" fill="#BDC3C7"></path>
                        <path d="M22.4044795,20.9842807 L22.4044795,1.70028655 C22.4070175,0.817602339 23.1220117,0.102608187 24.0048772,0.0998888889 L91.2184971,0.0998888889 C92.1011813,0.102426901 92.8161754,0.817421053 92.8188947,1.70028655 L92.8188947,57.7116667 C92.8163567,58.5943509 92.1013626,59.309345 91.2184971,59.3120643 L22.4044795,59.3120643 L22.4044795,20.9842807 Z" id="Shape" fill="#35495E"></path>
                        <g id="Group" transform="translate(3.081871, 0.000000)" fill="#BDC3C7">
                            <path d="M89.7368421,52.910655 L89.7368421,57.7116667 C89.7343041,58.5943509 89.0193099,59.309345 88.1364444,59.3120643 L20.9230058,59.3120643 C20.0392339,59.3120643 19.3226082,58.5956199 19.3226082,57.7116667 L19.3226082,52.910655 L89.7368421,52.910655 Z" id="Shape"></path>
                            <path d="M89.7368421,1.70028655 L89.7368421,6.50129825 L19.3226082,6.50129825 L19.3226082,1.70028655 C19.3253275,0.817602339 20.0401404,0.102608187 20.9230058,0.0998888889 L88.1366257,0.0998888889 C89.0193099,0.102608187 89.7343041,0.817602339 89.7368421,1.70028655 Z" id="Shape"></path>
                            <path d="M32.0440292,38.6586316 L32.0284386,38.6586316 C31.1446667,38.6499298 30.4351111,37.9264152 30.4438129,37.0426433 C30.5219474,33.2722456 29.1940234,29.6077193 26.7189181,26.7624269 C24.4620819,24.1223509 21.1827895,22.5752515 17.7100643,22.512345 L16.2614035,22.4974795 C16.223152,22.4967544 16.1839942,22.4967544 16.1457427,22.4967544 C9.09822807,22.4967544 3.32044444,28.8738713 3.2415848,36.7714386 C3.21783626,37.6488655 2.50320468,38.349538 1.62559649,38.3560643 C0.741824561,38.3473626 0.0322690058,37.623848 0.040891572,36.740076 C0.137959064,27.0881988 7.34863158,19.2959591 16.1466491,19.2959591 C16.1959591,19.2959591 16.2441813,19.2959591 16.2934912,19.2966842 L17.742152,19.3115497 C22.1202222,19.3789883 26.2597193,21.3180292 29.114076,24.6384737 C32.1161813,28.077117 33.7312632,32.5099357 33.6446082,37.0738246 C33.6357251,37.951614 32.9218187,38.6586316 32.0440292,38.6586316 Z" id="Shape"></path>
                        </g>
                        <polygon id="Rectangle-path" fill="#95A5A5" points="3.20061404 36.9074035 36.8073333 36.9074035 36.8073333 46.5094269 3.20061404 46.5094269"></polygon>
                        <path d="M40.0081491,72.5146199 L40.0081491,75.3151345 L-2.70461459e-05,75.3151345 L-2.70461459e-05,72.3224561 C-0.00725146199,69.6292632 1.44412865,67.1430994 3.79269591,65.8251462 L11.9063567,61.328152 C12.9844678,60.7357076 13.648883,59.5977719 13.6347427,58.3675614 L13.6347427,56.239076 C13.6329298,56.0440117 13.5714737,55.8542047 13.4587135,55.6950351 C13.2826842,55.4550117 12.9625322,55.0549123 12.562614,54.5108713 C11.8115439,53.5052749 11.1527485,52.4340526 10.5942047,51.3102573 C10.159117,50.428117 9.82627485,49.499386 9.60202339,48.5416491 L9.60202339,35.6110234 C9.60202339,35.6110234 8.91385965,27.3053801 20.0040643,27.3053801 C31.094269,27.3053801 30.4061053,35.6110234 30.4061053,35.6110234 L30.4061053,48.5416491 C29.6365439,51.1703041 28.3223977,53.6075205 26.5494152,55.6950351 C26.436655,55.8542047 26.3751988,56.0440117 26.373386,56.239076 L26.373386,58.463462 C26.3610585,59.7270292 27.0600994,60.8901637 28.1817193,61.4720936 L35.9752281,65.8730058 C38.4579474,67.1563333 40.014655,69.7200877 40.0081491,72.5146199 Z" id="Shape" fill="#F29C1F"></path>
                        <g id="Group" transform="translate(3.081871, 38.432749)" fill="#BDC3C7">
                            <path d="M19.3226082,14.4779064 C19.3198889,15.3605906 18.605076,16.0755848 17.7222105,16.0783041 L4.91975439,16.0783041 C2.27152047,16.0705088 0.126538012,13.9257076 0.11874269,11.2772924 L0.11874269,8.07667836 L3.31935673,8.07667836 L3.31935673,11.2772924 C3.32207602,12.1599766 4.03688889,12.8749708 4.91975439,12.8776901 L17.7223918,12.8776901 C18.605076,12.8802281 19.3200702,13.5952222 19.3226082,14.4779064 Z" id="Shape"></path>
                            <path d="M57.7332398,0.0721520468 L57.7359591,3.11559064 C57.776386,4.52382456 56.9194444,5.80261988 55.6016725,6.30061404 C54.6212749,6.64125146 53.5366374,6.48752047 52.6894854,5.88782456 C51.8423333,5.28812865 51.3367251,4.31643275 51.3320117,3.27838596 L51.3291111,0.0777719298 L57.7332398,0.0721520468 Z" id="Shape"></path>
                        </g>
                        <path d="M67.0917953,24.1586082 C67.6479825,27.5619006 66.3331111,31.0016316 63.6488012,33.1663743 C62.876883,33.7740468 62.4222164,34.699152 62.4127895,35.6815439 L62.4127895,36.9103041 C62.4127895,37.794076 61.696345,38.5107018 60.8123918,38.5107018 L54.4111637,38.5107018 C53.5273918,38.5107018 52.8107661,37.7942573 52.8107661,36.9103041 L52.8107661,35.6775556 C52.8087719,34.709848 52.3662515,33.7956199 51.6084737,33.1935673 C48.2679064,30.5132456 47.1067661,25.9446433 48.7620936,21.9945906 C50.4174211,18.044538 54.4889357,15.6687778 58.7422807,16.1709415 C62.9954444,16.6731053 66.4016374,19.931731 67.0917953,24.1586082 L67.0917953,24.1586082 Z" id="Shape" fill="#E4C05C"></path>
                        <path d="M60.8122105,27.3086433 C59.9291637,27.3082807 59.2132632,26.592924 59.2118129,25.7098772 C59.21,24.8270117 58.4942807,24.1121988 57.6114152,24.1111111 L57.608152,24.1111111 C57.0363743,24.1114737 56.507924,23.806731 56.2218538,23.3116374 C55.9357836,22.8167251 55.9354211,22.2065146 56.2211287,21.7112398 C56.5068363,21.2159649 57.034924,20.9106784 57.6067018,20.9103158 L57.6114152,20.9103158 C60.2598304,20.9132164 62.406807,23.0580175 62.412427,25.7064327 C62.4127895,26.5900234 61.6972515,27.3068304 60.8136608,27.3082807 L60.8122105,27.3082807 L60.8122105,27.3086433 Z" id="Shape" fill="#F9EAB0"></path>
                    </g>
                </g>
            </g>
        </g>
    </g>
</svg>