<?xml version="1.0" encoding="UTF-8"?>
<svg width="80px" height="80px" viewBox="0 0 80 80" version="1.1" xmlns="http://www.w3.org/2000/svg" xmlns:xlink="http://www.w3.org/1999/xlink">
    <title>271115</title>
    <g id="Page-1" stroke="none" stroke-width="1" fill="none" fill-rule="evenodd">
        <g id="my-design" transform="translate(-504.000000, -623.000000)" fill-rule="nonzero">
            <g id="Cards" transform="translate(165.000000, 508.000000)">
                <g id="card-2" transform="translate(280.000000, 92.000000)">
                    <g id="271115" transform="translate(59.000000, 23.000000)">
                        <path d="M64.9321207,17.3529023 C63.3320509,17.3529023 62.036223,16.0572094 62.036223,14.4607778 L62.036223,0 L7.01354475,0 C5.41363049,0 4.11764706,1.29429484 4.11764706,2.8921245 L4.11764706,46.1240887 C6.28233758,41.9261742 10.6580704,39.0441468 15.7013934,39.0441468 C22.8862309,39.0441468 28.7330885,44.8819882 28.7330885,52.0588624 L28.7330885,59.2891736 L31.6289862,59.2891736 L31.6289862,69.4117647 L35.9728327,69.4117647 L76.515867,69.4117647 C78.1159368,69.4117647 79.4117647,68.1160718 79.4117647,66.5196402 L79.4117647,17.3529023 L64.9321207,17.3529023 Z" id="Shape" fill="#ECF0F1"></path>
                        <polygon id="Shape" fill="#8697CB" points="43.5294118 53.3332304 66.5881424 53.3332304 72.3529412 57.6470588 72.3529412 31.7647059 43.5294118 31.7647059"></polygon>
                        <polygon id="Shape" fill="#F0C419" points="0 79.4117647 31.7647059 79.4117647 31.7647059 59.4117647 0 59.4117647"></polygon>
                        <path d="M28.8235294,58.8235294 L23.0719641,58.8235294 L23.0719641,51.6807271 C23.0719641,47.7421725 19.8467873,44.5379247 15.8825074,44.5379247 C11.9182276,44.5379247 8.69305073,47.7421725 8.69305073,51.6807271 L8.69305073,58.8235294 L2.94117647,58.8235294 L2.94117647,51.6807271 C2.94117647,44.590715 8.74742153,38.8235294 15.8823529,38.8235294 C23.0172844,38.8235294 28.8235294,44.590715 28.8235294,51.6807271 L28.8235294,58.8235294 Z" id="Shape" fill="#5C6887"></path>
                        <g id="Group" transform="translate(10.000000, 0.000000)" fill="#D1D4D1">
                            <path d="M69.4117647,17.4211026 L54.95626,17.4211026 C53.3588577,17.4211026 52.0651902,16.1217209 52.0651902,14.5176115 L52.0651902,0 L69.4117647,17.4211026 Z" id="Shape"></path>
                            <path d="M26.0452507,15.969357 L8.69867614,15.969357 C7.90067377,15.969357 7.2531412,15.3190424 7.2531412,14.5176115 C7.2531412,13.7161806 7.90067377,13.0658659 8.69867614,13.0658659 L26.0452507,13.0658659 C26.8432531,13.0658659 27.4907856,13.7161806 27.4907856,14.5176115 C27.4907856,15.3190424 26.8432531,15.969357 26.0452507,15.969357" id="Shape"></path>
                            <path d="M2.91653639,15.969357 L1.47100145,15.969357 C0.672999079,15.969357 0.0254665088,15.3190424 0.0254665088,14.5176115 C0.0254665088,13.7161806 0.672999079,13.0658659 1.47100145,13.0658659 L2.91653639,13.0658659 C3.71453876,13.0658659 4.36207133,13.7161806 4.36207133,14.5176115 C4.36207133,15.3190424 3.71438347,15.969357 2.91653639,15.969357" id="Shape"></path>
                            <path d="M24.5997158,21.7763393 L18.817576,21.7763393 C18.0195736,21.7763393 17.3720411,21.1260246 17.3720411,20.3245937 C17.3720411,19.5231628 18.0195736,18.8728482 18.817576,18.8728482 L24.5997158,18.8728482 C25.3977181,18.8728482 26.0452507,19.5231628 26.0452507,20.3245937 C26.0452507,21.1260246 25.3977181,21.7763393 24.5997158,21.7763393" id="Shape"></path>
                            <path d="M24.5997158,27.5834774 L21.7086459,27.5834774 C20.9106435,27.5834774 20.2631109,26.9331628 20.2631109,26.1317319 C20.2631109,25.330301 20.9106435,24.6799863 21.7086459,24.6799863 L24.5997158,24.6799863 C25.3977181,24.6799863 26.0452507,25.330301 26.0452507,26.1317319 C26.0452507,26.9330068 25.3977181,27.5834774 24.5997158,27.5834774" id="Shape"></path>
                            <path d="M13.035281,21.7763393 L1.47100145,21.7763393 C0.672999079,21.7763393 0.0254665088,21.1260246 0.0254665088,20.3245937 C0.0254665088,19.5231628 0.672999079,18.8728482 1.47100145,18.8728482 L13.0354362,18.8728482 C13.8334386,18.8728482 14.4809712,19.5231628 14.4809712,20.3245937 C14.4809712,21.1260246 13.8332833,21.7763393 13.035281,21.7763393" id="Shape"></path>
                            <path d="M15.9265061,27.5834774 L1.47100145,27.5834774 C0.672999079,27.5834774 0.0254665088,26.9331628 0.0254665088,26.1317319 C0.0254665088,25.330301 0.672999079,24.6799863 1.47100145,24.6799863 L15.9265061,24.6799863 C16.7245085,24.6799863 17.3720411,25.330301 17.3720411,26.1317319 C17.3720411,26.9330068 16.7243532,27.5834774 15.9265061,27.5834774" id="Shape"></path>
                            <path d="M24.5997158,10.1623748 L21.7086459,10.1623748 C20.9106435,10.1623748 20.2631109,9.51206019 20.2631109,8.71062927 C20.2631109,7.90919836 20.9106435,7.25888372 21.7086459,7.25888372 L24.5997158,7.25888372 C25.3977181,7.25888372 26.0452507,7.90919836 26.0452507,8.71062927 C26.0452507,9.51206019 25.3977181,10.1623748 24.5997158,10.1623748" id="Shape"></path>
                            <path d="M15.9265061,10.1623748 L1.47100145,10.1623748 C0.672999079,10.1623748 0.0254665088,9.51206019 0.0254665088,8.71062927 C0.0254665088,7.90919836 0.672999079,7.25888372 1.47100145,7.25888372 L15.9265061,7.25888372 C16.7245085,7.25888372 17.3720411,7.90919836 17.3720411,8.71062927 C17.3720411,9.51206019 16.7243532,10.1623748 15.9265061,10.1623748" id="Shape"></path>
                            <path d="M26.0452507,33.3904596 L8.69867614,33.3904596 C7.90067377,33.3904596 7.2531412,32.740145 7.2531412,31.9387141 C7.2531412,31.1372832 7.90067377,30.4869685 8.69867614,30.4869685 L26.0452507,30.4869685 C26.8432531,30.4869685 27.4907856,31.1372832 27.4907856,31.9387141 C27.4907856,32.740145 26.8432531,33.3904596 26.0452507,33.3904596" id="Shape"></path>
                            <path d="M2.91653639,33.3904596 L1.47100145,33.3904596 C0.672999079,33.3904596 0.0254665088,32.740145 0.0254665088,31.9387141 C0.0254665088,31.1372832 0.672999079,30.4869685 1.47100145,30.4869685 L2.91653639,30.4869685 C3.71453876,30.4869685 4.36207133,31.1372832 4.36207133,31.9387141 C4.36207133,32.740145 3.71438347,33.3904596 2.91653639,33.3904596" id="Shape"></path>
                        </g>
                        <g id="Group" transform="translate(11.764706, 37.647059)" fill="#FFFFFF">
                            <path d="M53.7223629,2.87289826 L46.4726031,2.87289826 C45.6721624,2.87289826 45.0226512,2.23071194 45.0226512,1.43929816 C45.0226512,0.647884373 45.6723181,0.00569805605 46.4726031,0.00569805605 L53.7223629,0.00569805605 C54.5228036,0.00569805605 55.1723148,0.647884373 55.1723148,1.43929816 C55.1723148,2.23055794 54.5228036,2.87289826 53.7223629,2.87289826" id="Shape"></path>
                            <path d="M40.6726396,2.87289826 L39.2226877,2.87289826 C38.4222469,2.87289826 37.7727357,2.23071194 37.7727357,1.43929816 C37.7727357,0.647884373 38.4222469,0.00569805605 39.2226877,0.00569805605 L40.6726396,0.00569805605 C41.4730804,0.00569805605 42.1225915,0.647884373 42.1225915,1.43929816 C42.1225915,2.23055794 41.4730804,2.87289826 40.6726396,2.87289826" id="Shape"></path>
                            <path d="M45.0226512,10.0408988 L39.2228434,10.0408988 C38.4224027,10.0408988 37.7728915,9.39871245 37.7728915,8.60729866 C37.7728915,7.81588488 38.4224027,7.17369856 39.2228434,7.17369856 L45.0226512,7.17369856 C45.823092,7.17369856 46.4726031,7.81588488 46.4726031,8.60729866 C46.4726031,9.39871245 45.8229362,10.0408988 45.0226512,10.0408988" id="Shape"></path>
                            <path d="M53.7223629,10.0408988 L50.822459,10.0408988 C50.0220182,10.0408988 49.372507,9.39871245 49.372507,8.60729866 C49.372507,7.81588488 50.0220182,7.17369856 50.822459,7.17369856 L53.7223629,7.17369856 C54.5228036,7.17369856 55.1723148,7.81588488 55.1723148,8.60729866 C55.1723148,9.39871245 54.5228036,10.0408988 53.7223629,10.0408988" id="Shape"></path>
                            <path d="M7.32343331,31.5450543 L1.52362552,31.5450543 C0.723184756,31.5450543 0.0736735708,30.902714 0.0736735708,30.1114542 C0.0736735708,29.3200404 0.723184756,28.6778541 1.52362552,28.6778541 L7.32343331,28.6778541 C8.12387407,28.6778541 8.77338525,29.3201944 8.77338525,30.1114542 C8.77338525,30.902868 8.12387407,31.5450543 7.32343331,31.5450543" id="Shape"></path>
                            <path d="M4.42352941,35.8460086 C3.62308865,35.8460086 2.97357746,35.2038223 2.97357746,34.4124085 L2.97357746,30.1116082 C2.97357746,29.3201944 3.62308865,28.6780081 4.42352941,28.6780081 C5.22397017,28.6780081 5.87348136,29.3203484 5.87348136,30.1116082 L5.87348136,34.4124085 C5.87348136,35.2036683 5.22397017,35.8460086 4.42352941,35.8460086" id="Shape"></path>
                        </g>
                    </g>
                </g>
            </g>
        </g>
    </g>
</svg>