<?xml version="1.0" encoding="UTF-8"?>
<svg width="40px" height="42px" viewBox="0 0 40 42" version="1.1" xmlns="http://www.w3.org/2000/svg" xmlns:xlink="http://www.w3.org/1999/xlink">
    <title>148819</title>
    <g id="Page-1" stroke="none" stroke-width="1" fill="none" fill-rule="evenodd">
        <g id="my-design" transform="translate(-450.000000, -508.000000)" fill-rule="nonzero">
            <g id="Cards" transform="translate(165.000000, 508.000000)">
                <g id="148819" transform="translate(285.000000, 0.000000)">
                    <path d="M20,7.05882353 C13.0690196,7.05882353 7.45098039,12.6776471 7.45098039,19.6078431 C7.45098039,25.1678431 11.0705882,29.8752941 16.0784314,31.5231373 L16.0784314,39.2156863 L17.6470588,39.2156863 L17.6470588,41.5686275 L22.3529412,41.5686275 L22.3529412,39.2156863 L23.9215686,39.2156863 L23.9215686,31.5231373 C28.9294118,29.8752941 32.5490196,25.1678431 32.5490196,19.6078431 C32.5490196,12.6776471 26.9309804,7.05882353 20,7.05882353 Z" id="Shape" fill="#EFCE4A"></path>
                    <g id="Group" fill="#EFCE4A">
                        <path d="M20,0 C19.5662745,0 19.2156863,0.350588235 19.2156863,0.784313725 L19.2156863,3.92156863 C19.2156863,4.35529412 19.5662745,4.70588235 20,4.70588235 C20.4337255,4.70588235 20.7843137,4.35529412 20.7843137,3.92156863 L20.7843137,0.784313725 C20.7843137,0.350588235 20.4337255,0 20,0 Z" id="Shape"></path>
                        <path d="M38.8235294,18.8235294 L35.6862745,18.8235294 C35.252549,18.8235294 34.9019608,19.1741176 34.9019608,19.6078431 C34.9019608,20.0415686 35.252549,20.3921569 35.6862745,20.3921569 L38.8235294,20.3921569 C39.2572549,20.3921569 39.6078431,20.0415686 39.6078431,19.6078431 C39.6078431,19.1741176 39.2572549,18.8235294 38.8235294,18.8235294 Z" id="Shape"></path>
                        <path d="M4.31372549,18.8235294 L1.17647059,18.8235294 C0.742745098,18.8235294 0.392156863,19.1741176 0.392156863,19.6078431 C0.392156863,20.0415686 0.742745098,20.3921569 1.17647059,20.3921569 L4.31372549,20.3921569 C4.74745098,20.3921569 5.09803922,20.0415686 5.09803922,19.6078431 C5.09803922,19.1741176 4.74745098,18.8235294 4.31372549,18.8235294 Z" id="Shape"></path>
                        <path d="M32.7560784,5.7427451 L30.5380392,7.96078431 C30.2313725,8.26745098 30.2313725,8.76313725 30.5380392,9.06980392 C30.6909804,9.2227451 30.8917647,9.29960784 31.092549,9.29960784 C31.2933333,9.29960784 31.4941176,9.2227451 31.6470588,9.06980392 L33.865098,6.85176471 C34.1717647,6.54509804 34.1717647,6.04941176 33.865098,5.7427451 C33.5584314,5.43607843 33.0619608,5.43686275 32.7560784,5.7427451 Z" id="Shape"></path>
                        <path d="M8.35294118,30.1458824 L6.13490196,32.3639216 C5.82823529,32.6705882 5.82823529,33.1662745 6.13490196,33.4729412 C6.28784314,33.6258824 6.48862745,33.7027451 6.68941176,33.7027451 C6.89019608,33.7027451 7.09098039,33.6258824 7.24392157,33.4729412 L9.46196078,31.254902 C9.76862745,30.9482353 9.76862745,30.452549 9.46196078,30.1458824 C9.15529412,29.8392157 8.65960784,29.8392157 8.35294118,30.1458824 Z" id="Shape"></path>
                        <path d="M31.6470588,30.1458824 C31.3403922,29.8392157 30.8447059,29.8392157 30.5380392,30.1458824 C30.2313725,30.452549 30.2313725,30.9482353 30.5380392,31.254902 L32.7560784,33.4729412 C32.9090196,33.6258824 33.1098039,33.7027451 33.3105882,33.7027451 C33.5113725,33.7027451 33.7121569,33.6258824 33.865098,33.4729412 C34.1717647,33.1662745 34.1717647,32.6705882 33.865098,32.3639216 L31.6470588,30.1458824 Z" id="Shape"></path>
                        <path d="M7.24392157,5.7427451 C6.9372549,5.43607843 6.44156863,5.43607843 6.13490196,5.7427451 C5.82823529,6.04941176 5.82823529,6.54509804 6.13490196,6.85176471 L8.35294118,9.06980392 C8.50588235,9.2227451 8.70666667,9.29960784 8.90745098,9.29960784 C9.10823529,9.29960784 9.30901961,9.2227451 9.46196078,9.06980392 C9.76862745,8.76313725 9.76862745,8.26745098 9.46196078,7.96078431 L7.24392157,5.7427451 Z" id="Shape"></path>
                    </g>
                    <path d="M11.372549,20.3921569 C10.9388235,20.3921569 10.5882353,20.0415686 10.5882353,19.6078431 C10.5882353,14.4180392 14.8101961,10.1960784 20,10.1960784 C20.4337255,10.1960784 20.7843137,10.5466667 20.7843137,10.9803922 C20.7843137,11.4141176 20.4337255,11.7647059 20,11.7647059 C15.6752941,11.7647059 12.1568627,15.2831373 12.1568627,19.6078431 C12.1568627,20.0415686 11.8062745,20.3921569 11.372549,20.3921569 Z" id="Shape" fill="#F7E6A1"></path>
                    <polygon id="Shape" fill="#556080" points="16.0784314 33.7254902 16.0784314 39.2156863 17.6470588 39.2156863 17.6470588 41.5686275 22.3529412 41.5686275 22.3529412 39.2156863 23.9215686 39.2156863 23.9215686 33.7254902"></polygon>
                </g>
            </g>
        </g>
    </g>
</svg>