<?xml version="1.0" encoding="UTF-8"?>
<svg width="69px" height="69px" viewBox="0 0 69 69" version="1.1" xmlns="http://www.w3.org/2000/svg" xmlns:xlink="http://www.w3.org/1999/xlink">
    <title>786407</title>
    <g id="Page-1" stroke="none" stroke-width="1" fill="none" fill-rule="evenodd">
        <g id="my-design" transform="translate(-739.000000, -1673.000000)" fill-rule="nonzero">
            <g id="account-section" transform="translate(-1.000000, 1606.000000)">
                <g id="786407" transform="translate(740.000000, 67.000000)">
                    <path d="M68.407845,0.592291141 C67.8361698,0.0202110311 66.9779831,-0.155792885 66.2277436,0.144869241 L1.27077374,26.1274136 C0.527407252,26.4245719 0.0297182697,27.1324957 0.00128274974,27.9324645 C-0.0271527702,28.7324333 0.419190558,29.4739138 1.13924261,29.8230916 L26.7537164,42.2460571 L39.1766695,67.8606913 C39.51547,68.5593164 40.2229889,69 40.9950604,69 C41.0190486,69 41.0431717,69 41.0672947,68.9986523 C41.8672627,68.9702168 42.5750511,68.4725273 42.8723438,67.7292949 L68.8554012,2.77252954 C69.1556588,2.0217502 68.979655,1.16410172 68.407845,0.592291141 Z" id="Shape" fill="#4DBBEB"></path>
                    <path d="M68.425312,1 L28,42.4054578 L40.0565091,67.8674794 C40.3853158,68.561942 41.0719648,69 41.8212623,69 C41.8445429,69 41.8679544,69 41.8913658,68.9986604 C42.6677369,68.9703942 43.3546474,68.47567 43.6431708,67.7368657 L68.8596665,3.16724849 C69.1510672,2.42094231 68.9802551,1.56840372 68.425312,1 L68.425312,1 Z" id="Shape" fill="#2488FF"></path>
                </g>
            </g>
        </g>
    </g>
</svg>