<?xml version="1.0" encoding="UTF-8"?>
<svg width="1100px" height="299px" viewBox="0 0 1100 299" version="1.1" xmlns="http://www.w3.org/2000/svg" xmlns:xlink="http://www.w3.org/1999/xlink">
    <title>Group 5</title>
    <defs>
        <rect id="path-1" x="0" y="0" width="1100" height="299"></rect>
    </defs>
    <g id="Page-1" stroke="none" stroke-width="1" fill="none" fill-rule="evenodd">
        <g id="my-design" transform="translate(-1.000000, -2504.000000)">
            <g id="Group-5" transform="translate(1.000000, 2504.000000)">
                <mask id="mask-2" fill="white">
                    <use xlink:href="#path-1"></use>
                </mask>
                <use id="Rectangle-3" fill="#F6F9FC" fill-rule="nonzero" xlink:href="#path-1"></use>
                <g id="1039354" opacity="0.246428571" mask="url(#mask-2)" fill-rule="nonzero">
                    <g transform="translate(246.611254, 149.413801) rotate(-31.000000) translate(-246.611254, -149.413801) translate(81.611254, -12.086199)" id="Shape">
                        <path d="M329.135759,85.9017554 C329.135759,194.36704 260.645204,286.822344 164.568617,322.452799 C68.4743187,286.823081 0,194.367778 0,85.9017554 C0,60.6275745 3.71429914,36.2248408 10.6344229,13.2071251 C14.3339623,0.901346903 29.179351,-3.97831438 39.4868448,3.6957333 C40.0720702,4.13108793 40.6587715,4.56496678 41.2484248,4.99589407 C77.7028724,31.6514035 127.4426,31.3791224 163.82989,4.63137681 C164.797394,4.25726698 165.027647,4.4269815 165.257161,4.59669602 C201.632644,31.3813361 251.396725,31.6558309 287.859291,4.98999096 C288.452634,4.55685 289.043025,4.12001959 289.63194,3.68171341 C299.937958,-3.99381005 314.783347,0.885113341 318.4851,13.1901536 C325.411866,36.2122967 329.135759,60.6260987 329.135759,85.9017554 Z" fill="#DDE0E4"></path>
                        <path d="M23.3903585,85.2300231 C23.3903585,132.692496 37.8313784,178.176599 65.1509932,216.765868 C90.1630489,252.091488 124.114503,279.243626 163.728828,295.720961 L163.736191,295.720961 C203.357879,279.243626 237.30197,252.091488 262.314026,216.765868 C289.633641,178.177335 304.07466,132.692496 304.07466,85.2300231 C304.07466,65.2585004 301.535904,45.6869236 296.519503,26.7465693 C275.615992,40.7152187 251.335081,48.0652399 225.931314,48.0652399 C203.881387,48.0652399 182.662741,42.5315482 163.736191,31.9495505 C144.825104,42.5241827 123.606457,48.0578745 101.55653,48.0578745 C76.1446642,48.0578745 51.8563898,40.7078532 30.9528791,26.7318383 C25.9291153,45.6869236 23.3903585,65.2585004 23.3903585,85.2300231 Z" fill="#B6BABE"></path>
                        <path d="M163.732509,31.9351045 L163.732509,295.720961 C203.355237,279.242724 237.300218,252.089099 262.31293,216.761544 C289.633262,178.170898 304.07466,132.683568 304.07466,85.2184951 C304.07466,65.2458786 301.535837,45.67323 296.519305,26.7318383 C275.615246,40.7012527 251.333697,48.0516765 225.929264,48.0516765 C203.878759,48.0516765 182.659556,42.5176818 163.732509,31.9351045 Z" fill="#BFC4C7"></path>
                    </g>
                </g>
            </g>
        </g>
    </g>
</svg>