<?xml version="1.0" encoding="UTF-8"?>
<svg width="76px" height="76px" viewBox="0 0 76 76" version="1.1" xmlns="http://www.w3.org/2000/svg" xmlns:xlink="http://www.w3.org/1999/xlink">
    <title>1055645</title>
    <g id="Page-1" stroke="none" stroke-width="1" fill="none" fill-rule="evenodd">
        <g id="my-design" transform="translate(-641.000000, -2146.000000)" fill-rule="nonzero">
            <g id="1055645" transform="translate(641.000000, 2146.000000)">
                <circle id="Oval" fill="#F24976" cx="39.6328125" cy="39.6328125" r="36.3671875"></circle>
                <path d="M35.8712578,35.8708125 C38.6811797,33.0611875 42.4167578,31.513875 46.3899844,31.513875 C49.0968906,31.513875 51.6929141,32.2326094 53.9616328,33.5787891 L53.9616328,7.98044531 L0,7.98044531 L0,55.0217734 C0,55.8381797 0.66796875,56.5061484 1.484375,56.5061484 L35.4862109,56.5061484 C30.0755156,50.6804219 30.2033203,41.5390469 35.8712578,35.8708125 Z" id="Shape" fill="#EEF6FF"></path>
                <path d="M3.3665625,55.0217734 L3.3665625,7.98044531 L0,7.98044531 L0,55.0217734 C0,55.8381797 0.66796875,56.5061484 1.484375,56.5061484 L4.8509375,56.5061484 C4.03453125,56.5061484 3.3665625,55.8381797 3.3665625,55.0217734 Z" id="Shape" fill="#C3DDF4"></path>
                <path d="M53.1131641,0 L0.84846875,0 C0.38178125,0 0,0.38178125 0,0.84846875 L0,8.40126563 L53.9616328,8.40126563 L53.9616328,0.84846875 C53.9616328,0.38178125 53.5798516,0 53.1131641,0 Z" id="Shape" fill="#293D7C"></path>
                <path d="M4.21503125,0 L0.84846875,0 C0.38178125,0 0,0.38178125 0,0.84846875 L0,8.40126563 L3.3665625,8.40126563 L3.3665625,0.84846875 C3.3665625,0.38178125 3.74834375,0 4.21503125,0 Z" id="Shape" fill="#1A2B63"></path>
                <path d="M23.4915703,26.5131641 C23.4915703,26.9213672 23.1575859,27.2553516 22.7493828,27.2553516 L6.2070625,27.2553516 C5.79885938,27.2553516 5.464875,26.9213672 5.464875,26.5131641 L5.464875,14.6501875 C5.464875,14.2419844 5.79885938,13.908 6.2070625,13.908 L22.7492344,13.908 C23.1574375,13.908 23.4915703,14.2419844 23.4915703,14.6501875 L23.4915703,26.5131641 L23.4915703,26.5131641 Z" id="Shape" fill="#69CDFF"></path>
                <path d="M8.8314375,26.5131641 L8.8314375,14.6501875 C8.8314375,14.2419844 9.16542187,13.908 9.573625,13.908 L6.2070625,13.908 C5.79885938,13.908 5.464875,14.2419844 5.464875,14.6501875 L5.464875,26.5131641 C5.464875,26.9213672 5.79885938,27.2553516 6.2070625,27.2553516 L9.573625,27.2553516 C9.16542187,27.2553516 8.8314375,26.9213672 8.8314375,26.5131641 Z" id="Shape" fill="#52BBEF"></path>
                <path d="M32.2330547,41.8279062 L6.2070625,41.8279062 C5.79885938,41.8279062 5.464875,42.1618906 5.464875,42.5700937 L5.464875,49.6667422 C5.464875,50.0749453 5.79885938,50.4089297 6.2070625,50.4089297 L32.0717031,50.4089297 C31.2886953,47.602125 31.3419844,44.6090313 32.2330547,41.8279062 Z" id="Shape" fill="#FF9518"></path>
                <path d="M8.8314375,49.6667422 L8.8314375,42.5700937 C8.8314375,42.1618906 9.16542187,41.8279062 9.573625,41.8279062 L6.2070625,41.8279062 C5.79885938,41.8279062 5.464875,42.1618906 5.464875,42.5700937 L5.464875,49.6667422 C5.464875,50.0749453 5.79885938,50.4089297 6.2070625,50.4089297 L9.573625,50.4089297 C9.16542187,50.4089297 8.8314375,50.0749453 8.8314375,49.6667422 Z" id="Shape" fill="#EF8318"></path>
                <path d="M32.2330547,41.8279062 L26.8449219,41.8279062 L26.8449219,50.4089297 L32.0717031,50.4089297 C31.2886953,47.602125 31.3419844,44.6090313 32.2330547,41.8279062 Z" id="Shape" fill="#FFD00D"></path>
                <g id="Group" transform="translate(4.304688, 12.765625)" fill="#91E0E8">
                    <path d="M43.3072344,2.25565625 L25.1104297,2.25565625 C24.4956016,2.25565625 23.9971484,1.75720312 23.9971484,1.142375 C23.9971484,0.527546875 24.4956016,0.02909375 25.1104297,0.02909375 L43.3072344,0.02909375 C43.9222109,0.02909375 44.4205156,0.527546875 44.4205156,1.142375 C44.4205156,1.75720312 43.9222109,2.25565625 43.3072344,2.25565625 Z" id="Shape"></path>
                    <path d="M43.3072344,6.70477344 L25.1104297,6.70477344 C24.4956016,6.70477344 23.9971484,6.20632031 23.9971484,5.59149219 C23.9971484,4.97666406 24.4956016,4.47821094 25.1104297,4.47821094 L43.3072344,4.47821094 C43.9222109,4.47821094 44.4205156,4.97666406 44.4205156,5.59149219 C44.4205156,6.20632031 43.9222109,6.70477344 43.3072344,6.70477344 Z" id="Shape"></path>
                    <path d="M43.3072344,11.1538906 L25.1104297,11.1538906 C24.4956016,11.1538906 23.9971484,10.6554375 23.9971484,10.0406094 C23.9971484,9.42578125 24.4956016,8.92732812 25.1104297,8.92732812 L43.3072344,8.92732812 C43.9222109,8.92732812 44.4205156,9.42578125 44.4205156,10.0406094 C44.4205156,10.6554375 43.9222109,11.1538906 43.3072344,11.1538906 Z" id="Shape"></path>
                    <path d="M43.3072344,15.6030078 L25.1104297,15.6030078 C24.4956016,15.6030078 23.9971484,15.1045547 23.9971484,14.4897266 C23.9971484,13.8748984 24.4956016,13.3764453 25.1104297,13.3764453 L43.3072344,13.3764453 C43.9222109,13.3764453 44.4205156,13.8748984 44.4205156,14.4897266 C44.4205156,15.1045547 43.9222109,15.6030078 43.3072344,15.6030078 Z" id="Shape"></path>
                    <path d="M40.1462578,18.8735312 L1.1601875,18.8735312 C0.545210938,18.8735312 0.04690625,19.3719844 0.04690625,19.9868125 C0.04690625,20.6016406 0.545210938,21.1000937 1.1601875,21.1000937 L34.0500781,21.1000937 C35.8887734,19.9154141 37.9617031,19.1561562 40.1462578,18.8735312 Z" id="Shape"></path>
                    <path d="M31.2774141,23.4029531 L1.1601875,23.4029531 C0.545210938,23.4029531 0.04690625,23.9014063 0.04690625,24.5162344 C0.04690625,25.1310625 0.545210938,25.6295156 1.1601875,25.6295156 L29.5396562,25.6295156 C30.0387031,24.8465078 30.6176094,24.1001641 31.2774141,23.4029531 Z" id="Shape"></path>
                </g>
                <path d="M5.17972656,5.13742187 C4.88596875,5.13742187 4.59933594,5.01867188 4.39152344,4.81219531 C4.18504688,4.60438281 4.06644531,4.31789844 4.06644531,4.02414062 C4.06644531,3.73157031 4.18519531,3.44523438 4.39152344,3.23742187 C4.5991875,3.02960937 4.88582031,2.91085937 5.17972656,2.91085937 C5.47229688,2.91085937 5.76011719,3.02946094 5.96644531,3.23742187 C6.17425781,3.44523437 6.29300781,3.73171875 6.29300781,4.02414062 C6.29300781,4.31789844 6.17425781,4.60453125 5.96644531,4.81219531 C5.76011719,5.01867188 5.47214844,5.13742187 5.17972656,5.13742187 Z" id="Shape" fill="#E26693"></path>
                <path d="M8.83054687,5.13742187 C8.53797656,5.13742187 8.25015625,5.01867188 8.04367969,4.81071094 C7.83601562,4.60438281 7.71726562,4.31789844 7.71726562,4.02414062 C7.71726562,3.73157031 7.83601562,3.44523438 8.04367969,3.23742187 C8.25149219,3.02960937 8.53797656,2.91085937 8.83054687,2.91085937 C9.12430469,2.91085937 9.41078906,3.02946094 9.61875,3.23742187 C9.82507812,3.44523437 9.94382812,3.73171875 9.94382812,4.02414062 C9.94382812,4.3165625 9.82492969,4.60453125 9.61875,4.81071094 C9.41078906,5.01867188 9.12445312,5.13742187 8.83054687,5.13742187 Z" id="Shape" fill="#FFAF10"></path>
                <path d="M12.4828516,5.13742187 C12.1889453,5.13742187 11.9024609,5.01867188 11.6961328,4.81219531 C11.4883203,4.60438281 11.3695703,4.31789844 11.3695703,4.02414062 C11.3695703,3.73157031 11.4883203,3.44523438 11.6961328,3.23742187 C11.9024609,3.02960937 12.1889453,2.91085937 12.4828516,2.91085937 C12.7752734,2.91085937 13.0632422,3.02946094 13.2695703,3.23742187 C13.4773828,3.44523437 13.5961328,3.73171875 13.5961328,4.02414062 C13.5961328,4.31789844 13.4773828,4.60453125 13.2695703,4.81219531 C13.0617578,5.01867188 12.775125,5.13742187 12.4828516,5.13742187 Z" id="Shape" fill="#37C47A"></path>
                <path d="M60.8249375,57.7729141 L57.7738047,60.8241953 L63.7761719,66.8265625 C64.8523437,65.8704766 65.8712187,64.8514531 66.8274531,63.7752812 L60.8249375,57.7729141 Z" id="Shape" fill="#445EA0"></path>
                <path d="M62.0361875,55.9328828 L59.5075547,53.4043984 C58.8349844,54.6640391 57.969,55.8469375 56.9081172,56.9076719 C55.8592578,57.9565312 54.6812578,58.8291953 53.4100391,59.5114141 L55.9339219,62.0351484 C56.2224844,62.3238594 56.6948125,62.3238594 56.9835234,62.0351484 L62.0361875,56.9824844 C62.32475,56.6939219 62.32475,56.2215937 62.0361875,55.9328828 Z" id="Shape" fill="#293D7C"></path>
                <path d="M57.6655938,60.3033281 L55.5073125,58.1450469 C54.8436484,58.6617578 54.1422812,59.1182031 53.4098906,59.5112656 L55.9337734,62.035 C56.2223359,62.3237109 56.6946641,62.3237109 56.983375,62.035 L58.7151953,60.3031797 C58.4264844,60.5920391 57.9543047,60.5920391 57.6655938,60.3033281 Z" id="Shape" fill="#1A2B63"></path>
                <path d="M57.1181562,35.6607734 C63.0431875,41.5858047 63.0431875,51.1923828 57.1180078,57.1175625 C51.1932734,63.0421484 41.5868437,63.0422969 35.6613672,57.1174141 C29.7363359,51.1923828 29.7366328,41.5858047 35.6613672,35.6609219 C41.5868437,29.7357422 51.1932734,29.7355938 57.1181562,35.6607734 Z" id="Shape" fill="#445EA0"></path>
                <path d="M53.9120547,53.9111641 C49.7578828,58.0654844 43.0222344,58.0654844 38.8676172,53.9108672 C34.7134453,49.7569922 34.7132969,43.0211953 38.8676172,38.866875 C43.0217891,34.7127031 49.7577344,34.7128516 53.9119062,38.866875 C58.066375,43.0213438 58.066375,49.7568438 53.9120547,53.9111641 Z" id="Shape" fill="#69CDFF"></path>
                <path d="M53.9120547,53.9111641 C54.2904219,53.5327969 54.6333125,53.1326094 54.9426562,52.7153516 C50.7782422,55.8035937 44.8704297,55.4605547 41.0941797,51.6843047 C37.3182266,47.9086484 36.9753359,42.0006875 40.0634297,37.8362734 C39.6460234,38.1457656 39.2459844,38.4886562 38.8676172,38.866875 C34.7132969,43.0211953 34.7134453,49.7568437 38.8676172,53.9108672 C43.0222344,58.0654844 49.7578828,58.0654844 53.9120547,53.9111641 Z" id="Shape" fill="#52BBEF"></path>
                <path d="M53.1131641,0 L17.2056875,0 L17.2056875,8.40126563 L53.9616328,8.40126563 L53.9616328,0.84846875 C53.9616328,0.38178125 53.5798516,0 53.1131641,0 Z" id="Shape" fill="#445EA0"></path>
                <g id="Group" transform="translate(46.312500, 37.406250)" fill="#D9EAFC">
                    <circle id="Oval" cx="1.90445312" cy="1.85992187" r="1.78125"></circle>
                    <circle id="Oval" cx="5.6465625" cy="3.7109375" r="1.26171875"></circle>
                </g>
            </g>
        </g>
    </g>
</svg>