<?xml version="1.0" encoding="UTF-8"?>
<svg width="75px" height="76px" viewBox="0 0 75 76" version="1.1" xmlns="http://www.w3.org/2000/svg" xmlns:xlink="http://www.w3.org/1999/xlink">
    <title>1039362</title>
    <g id="Page-1" stroke="none" stroke-width="1" fill="none" fill-rule="evenodd">
        <g id="my-design" transform="translate(-111.000000, -2343.000000)" fill-rule="nonzero">
            <g id="1039362" transform="translate(111.000000, 2343.500000)">
                <path d="M75,37.5 C75,45.5525391 72.4606934,53.0143066 68.1398437,59.1260742 C64.3117676,64.5398438 59.0862305,68.8943848 52.9867676,71.6633789 C50.4842285,72.7990723 47.8347656,73.668457 45.075,74.2347656 C42.6275391,74.7367676 40.0943848,75 37.5,75 C34.9041504,75 32.3708496,74.7367676 29.9235352,74.2347656 C27.1637695,73.668457 24.5143066,72.7990723 22.0117676,71.6617676 C15.9137695,68.8929199 10.6882324,64.5382324 6.86030273,59.1260742 C5.45361328,57.1347656 4.23383789,54.9996094 3.23115234,52.747998 C2.59130859,51.3153809 2.04038086,49.8353027 1.58422852,48.3137695 C0.552539062,44.8898437 0,41.2592285 0,37.5 C0,16.7893066 16.7893066,0 37.5,0 C46.2505371,0 54.2985352,2.99545898 60.6780762,8.01884766 C61.9193848,8.9953125 63.0963867,10.0483887 64.2030762,11.1719238 C70.879541,17.9418457 75,27.2402344 75,37.5 Z" id="Shape" fill="#343A6E"></path>
                <circle id="Oval" fill="#484B7F" cx="37.5" cy="32.2438477" r="32.2438477"></circle>
                <g id="Group" transform="translate(6.738281, 21.533203)" fill="#F9DF73">
                    <path d="M15.2734863,31.5637207 L15.2734863,50.1285645 C9.17548828,47.3597168 3.94995117,43.0050293 0.122021484,37.5928711 L0.122021484,31.5637207 L15.2734863,31.5637207 Z" id="Shape"></path>
                    <path d="M38.3367188,15.9667969 L38.3367188,52.701416 C35.8892578,53.2035645 33.3561035,53.4667969 30.7617188,53.4667969 C28.1658691,53.4667969 25.6325684,53.2035645 23.1852539,52.7015625 L23.1852539,15.9667969 L38.3367188,15.9667969 Z" id="Shape"></path>
                    <path d="M61.4015625,0.111181641 L61.4015625,37.5928711 C57.5734863,43.0066406 52.3479492,47.3611816 46.2484863,50.1301758 L46.2484863,0.111181641 L61.4015625,0.111181641 Z" id="Shape"></path>
                </g>
                <path d="M72.070166,1.11665039 L61.3510254,2.47353516 C60.5419922,2.57592773 60.1472168,3.51577148 60.6404297,4.1652832 L61.9072266,5.83330078 C62.2740234,6.31625977 62.161377,7.0078125 61.6604004,7.34941406 L60.6782227,8.01899414 L1.58422852,48.3137695 C2.04038086,49.8351563 2.59130859,51.3152344 3.23115234,52.747998 L64.2030762,11.1719238 L64.5300293,10.9491211 C64.9961426,10.6313965 65.629248,10.7345215 65.9705566,11.1837891 L67.1750977,12.7699219 C67.6683105,13.4192871 68.6796387,13.2914063 68.995459,12.539502 L73.1799316,2.57797852 C73.495752,1.82607422 72.8791992,1.01411133 72.070166,1.11665039 Z" id="Shape" fill="#EF487D"></path>
            </g>
        </g>
    </g>
</svg>