<?xml version="1.0" encoding="UTF-8"?>
<svg width="75px" height="75px" viewBox="0 0 75 75" version="1.1" xmlns="http://www.w3.org/2000/svg" xmlns:xlink="http://www.w3.org/1999/xlink">
    <title>1039359</title>
    <g id="Page-1" stroke="none" stroke-width="1" fill="none" fill-rule="evenodd">
        <g id="my-design" transform="translate(-641.000000, -2344.000000)" fill-rule="nonzero">
            <g id="1039359" transform="translate(641.000000, 2344.000000)">
                <path d="M75,37.5 C75,43.3637695 73.654541,48.9123047 71.2530762,53.8561523 C71.0679199,54.2373047 70.8766113,54.6153809 70.6791504,54.9903809 C69.8923828,56.4827637 69.0061523,57.9123047 68.0327637,59.2760742 C67.0316895,60.6780762 65.9358398,62.0081543 64.7541504,63.2556152 C61.8046875,66.3780762 58.3224609,68.9938477 54.4530762,70.9592285 C52.5873047,71.9050781 50.6326172,72.7010742 48.604541,73.3286133 C45.0949219,74.4152344 41.3663086,75 37.5,75 C33.6336914,75 29.9036133,74.4152344 26.3938477,73.3286133 C24.3657715,72.7010742 22.4112305,71.9050781 20.5469238,70.9577637 C16.6775391,68.9939941 13.195459,66.3782227 10.2458496,63.2557617 C9.06416016,62.0068359 7.96831055,60.6782227 6.96723633,59.2762207 C5.99370117,57.913916 5.10908203,56.4812988 4.32231445,54.9905273 C4.12338867,54.6140625 3.93046875,54.234375 3.7453125,53.8517578 C1.34384766,48.9092285 0,43.3623047 0,37.5 C0,31.6362305 1.34545898,26.0876953 3.74545898,21.1438477 C6.66577148,15.1286133 11.1474609,10.0101562 16.6637695,6.3168457 C22.6224609,2.32646484 29.7887695,0 37.5,0 C45.2112305,0 52.3775391,2.32646484 58.3362305,6.3168457 C63.8510742,10.0101562 68.3326172,15.1255371 71.2530762,21.1407715 C73.6530762,26.0847656 75,31.6362305 75,37.5 Z" id="Shape" fill="#F9DF73"></path>
                <g id="Group" transform="translate(20.507812, 59.326172)" fill="#EF487D">
                    <path d="M11.8523438,0.102978516 L5.88603516,14.0024414 C3.85795898,13.3749023 1.90341797,12.5789062 0.0391113281,11.6315918 L4.98764648,0.102978516 L11.8523438,0.102978516 Z" id="Shape"></path>
                    <path d="M33.9452637,11.6330566 C32.0794922,12.5789063 30.1248047,13.3749023 28.0967285,14.0024414 L22.1304199,0.102978516 L28.9952637,0.102978516 L33.9452637,11.6330566 Z" id="Shape"></path>
                </g>
                <path d="M71.2530762,6.3168457 L71.2530762,53.8561523 C71.0679199,54.2373047 70.8766113,54.6153809 70.6791504,54.9903809 C69.8923828,56.4827637 69.0061523,57.9123047 68.0327637,59.2760742 L6.96738281,59.2760742 C5.99384766,57.9137695 5.10922852,56.4811523 4.32246094,54.9903809 C4.12353516,54.613916 3.93061523,54.2342285 3.74545898,53.8516113 L3.74545898,6.3168457 L71.2530762,6.3168457 Z" id="Shape" fill="#F0F0F0"></path>
                <rect id="Rectangle-path" fill="#D4D4D4" x="3.74560547" y="6.3168457" width="67.5076172" height="7.34692383"></rect>
                <path d="M73.477002,4.50922852 L73.477002,8.73676758 C73.477002,9.85107422 72.5739258,10.7556152 71.4581543,10.7556152 L3.54023437,10.7556152 C2.42592773,10.7556152 1.52138672,9.85107422 1.52138672,8.73676758 L1.52138672,4.50922852 C1.52138672,3.39492187 2.42607422,2.49023438 3.54023437,2.49023438 L71.4581543,2.49023438 C72.5739258,2.49023438 73.477002,3.39492187 73.477002,4.50922852 Z" id="Shape" fill="#EF487D"></path>
                <g id="Group" transform="translate(1.464844, 2.490234)" fill="#FF668C">
                    <path d="M72.0121582,2.01899414 L72.0121582,3.95068359 C72.0121582,5.06499023 71.109082,5.96953125 69.9933105,5.96953125 L2.07539063,5.96953125 C0.961083984,5.96953125 0.0565429687,5.06499023 0.0565429687,3.95068359 L0.0565429687,2.01899414 C0.0565429687,0.9046875 0.961230469,0 2.07539063,0 L69.9933105,0 C71.109082,0 72.0121582,0.9046875 72.0121582,2.01899414 Z" id="Shape"></path>
                    <path d="M69.2143066,52.5 C68.7735352,53.3356934 68.302002,54.1530762 67.7985352,54.9489258 C66.4883789,57.0351562 64.9760742,58.9836914 63.2893066,60.7652344 L8.78100586,60.7652344 C7.09423828,58.9820801 5.58208008,57.0351562 4.27177734,54.9489258 C3.76977539,54.1529297 3.29824219,53.3356934 2.8574707,52.5 L69.2143066,52.5 Z" id="Shape"></path>
                </g>
                <g id="Group" transform="translate(17.724609, 40.283203)" fill="#EF487D">
                    <path d="M8.75522461,10.2687012 C8.36337891,10.2687012 7.97182617,10.1192871 7.67299805,9.82045898 L0.529833984,2.67729492 C-0.0678222656,2.07963867 -0.0678222656,1.11035156 0.529833984,0.512695313 C1.12763672,-0.0849609375 2.09663086,-0.0849609375 2.69458008,0.512695313 L9.83774414,7.65585938 C10.4354004,8.25351563 10.4354004,9.22280273 9.83774414,9.82045898 C9.53862305,10.1191406 9.14707031,10.2687012 8.75522461,10.2687012 Z" id="Shape"></path>
                    <path d="M1.61206055,10.2687012 C1.22021484,10.2687012 0.828662109,10.1192871 0.529833984,9.82045898 C-0.0678222656,9.22280273 -0.0678222656,8.25351563 0.529833984,7.65585938 L7.67299805,0.512695313 C8.27080078,-0.0849609375 9.23979492,-0.0849609375 9.83774414,0.512695313 C10.4354004,1.11035156 10.4354004,2.07963867 9.83774414,2.67729492 L2.69458008,9.82045898 C2.39545898,10.1191406 2.00390625,10.2687012 1.61206055,10.2687012 Z" id="Shape"></path>
                </g>
                <g id="Group" transform="translate(19.482422, 14.648438)" fill="#9FC5E6">
                    <path d="M33.9358887,34.5254883 C30.5600098,34.5254883 27.8134277,31.7789063 27.8134277,28.4030273 C27.8134277,25.0271484 30.5600098,22.2805664 33.9358887,22.2805664 C37.3117676,22.2805664 40.0583496,25.0271484 40.0583496,28.4030273 C40.0583496,31.7790527 37.3119141,34.5254883 33.9358887,34.5254883 Z M33.9358887,25.3417969 C32.2479492,25.3417969 30.8746582,26.7150879 30.8746582,28.4030273 C30.8746582,30.0909668 32.2479492,31.4642578 33.9358887,31.4642578 C35.6238281,31.4642578 36.9971191,30.0909668 36.9971191,28.4030273 C36.9971191,26.7150879 35.6239746,25.3417969 33.9358887,25.3417969 Z" id="Shape"></path>
                    <path d="M6.23569336,12.3763184 C2.85981445,12.3763184 0.113232422,9.62973633 0.113232422,6.25385742 C0.113232422,2.87797852 2.85981445,0.131396484 6.23569336,0.131396484 C9.61157227,0.131396484 12.3581543,2.87797852 12.3581543,6.25385742 C12.3581543,9.62973633 9.61157227,12.3763184 6.23569336,12.3763184 Z M6.23569336,3.19262695 C4.54775391,3.19262695 3.17446289,4.56591797 3.17446289,6.25385742 C3.17446289,7.94179688 4.54775391,9.31508789 6.23569336,9.31508789 C7.92363281,9.31508789 9.29692383,7.94179688 9.29692383,6.25385742 C9.29692383,4.56591797 7.9237793,3.19262695 6.23569336,3.19262695 Z" id="Shape"></path>
                </g>
                <path d="M65.784082,22.7680664 L61.3133789,18.2973633 C60.811377,17.7953613 59.9529785,18.1508789 59.9529785,18.8608887 L59.9529785,20.0431641 C59.9529785,20.9657227 59.2205566,21.7271484 58.298291,21.7501465 C48.801709,21.9864258 41.798291,25.5648926 37.4666016,28.6848633 C32.3041992,32.4033691 29.747168,36.2312988 29.6408203,36.3924316 C29.1758789,37.097168 29.3699707,38.044043 30.0738281,38.5103027 C30.3335449,38.6822754 30.6268066,38.7647461 30.9168457,38.7647461 C31.4126953,38.7647461 31.8994629,38.5242188 32.1944824,38.0806641 C32.2180664,38.0452148 34.6129395,34.4868164 39.3590332,31.0948242 C44.9368652,27.1083984 51.2635254,25.0016602 58.2057129,24.8118164 C59.1638672,24.7855957 59.9529785,25.5616699 59.9529785,26.5201172 L59.9529785,28.0589355 C59.9529785,28.7687988 60.811377,29.1244629 61.3133789,28.6224609 L65.784082,24.1517578 C66.1661133,23.7692871 66.1661133,23.1500977 65.784082,22.7680664 Z" id="Shape" fill="#484B7F"></path>
                <path d="M70.6791504,54.9902344 C70.2383789,55.8259277 69.7668457,56.6433105 69.2633789,57.4391602 L5.73676758,57.4391602 C5.23476562,56.6431641 4.76323242,55.8259277 4.32246094,54.9902344 L70.6791504,54.9902344 Z" id="Shape" fill="#EF487D"></path>
            </g>
        </g>
    </g>
</svg>