<?xml version="1.0" encoding="UTF-8"?>
<svg width="76px" height="76px" viewBox="0 0 76 76" version="1.1" xmlns="http://www.w3.org/2000/svg" xmlns:xlink="http://www.w3.org/1999/xlink">
    <title>1055680</title>
    <g id="Page-1" stroke="none" stroke-width="1" fill="none" fill-rule="evenodd">
        <g id="my-design" transform="translate(-111.000000, -2146.000000)" fill-rule="nonzero">
            <g id="1055680" transform="translate(111.000000, 2146.000000)">
                <circle id="Oval" fill="#F24976" cx="39.6328125" cy="39.6328125" r="36.3671875"></circle>
                <path d="M21.1412109,29.1253672 C21.1269609,29.1704922 21.1352734,29.2194766 21.1631797,29.257625 C21.1912344,29.2957734 21.2354688,29.3181875 21.2828203,29.3181875 L21.5972109,29.3181875 C21.9246641,29.3181875 22.1909609,29.5844844 22.1909609,29.9119375 L22.1909609,36.3523437 C22.1909609,36.6797969 21.9246641,36.9460937 21.5972109,36.9460937 L19.3687187,36.9460937 C19.2866328,36.9460937 19.2202812,37.0124453 19.2202812,37.0945312 L19.2202812,38.0362187 C19.2202812,38.7729141 18.6210391,39.3721562 17.8843437,39.3721562 L14.6644375,39.3721562 C13.9277422,39.3721562 13.3285,38.7729141 13.3285,38.0362187 L13.3285,37.0945312 C13.3285,37.0124453 13.2621484,36.9460937 13.1800625,36.9460937 L11.5042031,36.9460937 L11.5042031,62.6839687 C18.1737969,70.813 28.2973828,76 39.6328125,76 C50.9685391,76 61.092125,70.8128516 67.7617188,62.683375 L67.7617188,26.0470703 L22.1067969,26.0470703 L21.1412109,29.1253672 Z" id="Shape" fill="#D9EAFC"></path>
                <path d="M13.3285,38.0360703 L13.3285,37.0943828 C13.3285,37.0122969 13.2621484,36.9459453 13.1800625,36.9459453 L11.5042031,36.9459453 L11.5042031,62.6838203 C12.4218438,63.8022969 13.4070234,64.8627344 14.4496484,65.8639453 L14.4496484,39.3530078 C13.8149297,39.2498438 13.3285,38.6994375 13.3285,38.0360703 Z" id="Shape" fill="#C3DDF4"></path>
                <path d="M63.4344688,29.2292734 L21.1511562,29.2292734 C21.1554609,29.238625 21.1569453,29.2491641 21.1631797,29.2574766 C21.1912344,29.295625 21.2354687,29.3180391 21.2828203,29.3180391 L21.5972109,29.3180391 C21.9246641,29.3180391 22.1909609,29.5843359 22.1909609,29.9117891 L22.1909609,36.3521953 C22.1909609,36.6796484 21.9246641,36.9459453 21.5972109,36.9459453 L19.3687187,36.9459453 C19.2866328,36.9459453 19.2202812,37.0122969 19.2202812,37.0943828 L19.2202812,38.0360703 C19.2202812,38.7727656 18.6210391,39.3720078 17.8843437,39.3720078 L15.3861406,39.3720078 L15.3861406,40.7189297 C15.3861406,40.9638516 15.5865312,41.1642422 15.8314531,41.1642422 L63.4343203,41.1642422 C63.6792422,41.1642422 63.8796329,40.9638516 63.8796329,40.7189297 L63.8796329,29.6745859 C63.8796329,29.4296641 63.6793906,29.2292734 63.4344688,29.2292734 Z" id="Shape" fill="#52BBEF"></path>
                <g id="Group" transform="translate(15.289062, 59.078125)" fill="#EEF6FF">
                    <path d="M48.5907187,2.71892969 C48.5907187,2.96385156 48.3903281,3.16424219 48.1454062,3.16424219 L0.542390625,3.16424219 C0.29746875,3.16424219 0.097078125,2.96385156 0.097078125,2.71892969 L0.097078125,0.580835938 C0.097078125,0.335914063 0.29746875,0.135523438 0.542390625,0.135523438 L48.1452578,0.135523438 C48.3901797,0.135523438 48.5907187,0.335914063 48.5907187,0.580835938 L48.5907187,2.71892969 L48.5907187,2.71892969 Z" id="Shape"></path>
                    <path d="M39.3875938,7.91424219 C39.3875938,8.15901563 39.1872031,8.35955469 38.9422813,8.35955469 L9.74551562,8.35955469 C9.50059375,8.35955469 9.30020312,8.15901563 9.30020312,7.91424219 L9.30020312,5.77614844 C9.30020312,5.53122656 9.50059375,5.33083594 9.74551562,5.33083594 L38.9421328,5.33083594 C39.1870547,5.33083594 39.3875938,5.53122656 39.3875938,5.77614844 L39.3875938,7.91424219 L39.3875938,7.91424219 Z" id="Shape"></path>
                </g>
                <g id="Group" transform="translate(31.171875, 43.640625)" fill="#FFFFFF">
                    <path d="M15.1910937,12.2624219 C15.1910937,12.5073437 14.9907031,12.7077344 14.7457812,12.7077344 L0.501867187,12.7077344 C0.256945312,12.7077344 0.0565546875,12.5073437 0.0565546875,12.2624219 L0.0565546875,0.570890625 C0.0565546875,0.32596875 0.256945312,0.125578125 0.501867187,0.125578125 L14.7457812,0.125578125 C14.9907031,0.125578125 15.1910937,0.32596875 15.1910937,0.570890625 L15.1910937,12.2624219 Z" id="Shape"></path>
                    <path d="M32.7079063,12.2624219 C32.7079063,12.5073437 32.5075156,12.7077344 32.2625938,12.7077344 L18.0183828,12.7077344 C17.7734609,12.7077344 17.5730703,12.5073437 17.5730703,12.2624219 L17.5730703,0.570890625 C17.5730703,0.32596875 17.7734609,0.125578125 18.0183828,0.125578125 L32.2625938,0.125578125 C32.5075156,0.125578125 32.7079063,0.32596875 32.7079063,0.570890625 L32.7079063,12.2624219 Z" id="Shape"></path>
                </g>
                <g id="Group" transform="translate(31.171875, 43.640625)" fill="#EEF6FF">
                    <path d="M3.002,12.2624219 L3.002,0.570890625 C3.002,0.32596875 3.20239062,0.125578125 3.4473125,0.125578125 L0.501867188,0.125578125 C0.256945312,0.125578125 0.0565546875,0.32596875 0.0565546875,0.570890625 L0.0565546875,12.2624219 C0.0565546875,12.5073437 0.256945312,12.7077344 0.501867188,12.7077344 L3.4473125,12.7077344 C3.20224219,12.7077344 3.002,12.5074922 3.002,12.2624219 Z" id="Shape"></path>
                    <path d="M20.5183672,12.2624219 L20.5183672,0.570890625 C20.5183672,0.32596875 20.7187578,0.125578125 20.9636797,0.125578125 L18.0182344,0.125578125 C17.7733125,0.125578125 17.5729219,0.32596875 17.5729219,0.570890625 L17.5729219,12.2624219 C17.5729219,12.5073437 17.7733125,12.7077344 18.0182344,12.7077344 L20.9636797,12.7077344 C20.7187578,12.7077344 20.5183672,12.5074922 20.5183672,12.2624219 Z" id="Shape"></path>
                </g>
                <path d="M66.3993594,18.8236562 L27.2945391,18.8236562 C26.6048984,21.5498594 24.9186484,23.9502422 22.50075,25.5354062 C22.3282656,25.6485156 22.1970469,25.8095703 22.1210469,26.0012031 L22.0600391,26.1956562 L67.7617188,26.1956562 L67.7617188,20.1860156 C67.7617188,19.4365547 67.1488203,18.8236562 66.3993594,18.8236562 Z" id="Shape" fill="#293D7C"></path>
                <path d="M56.2769609,23.6875078 C55.9830547,23.6875078 55.6965703,23.5686094 55.4889062,23.3624297 C55.2824297,23.1546172 55.1636797,22.8681328 55.1636797,22.5742266 C55.1636797,22.2816563 55.2825781,21.9953203 55.4889062,21.7875078 C55.6964219,21.5795469 55.9829062,21.4609453 56.2769609,21.4609453 C56.5695313,21.4609453 56.8573516,21.5795469 57.0635312,21.7875078 C57.2713437,21.9951719 57.3902422,22.2816563 57.3902422,22.5742266 C57.3902422,22.8679844 57.2713437,23.1544687 57.0635312,23.3624297 C56.8573516,23.5686094 56.5695313,23.6875078 56.2769609,23.6875078 Z" id="Shape" fill="#FE3745"></path>
                <path d="M59.9279297,23.6875078 C59.6353594,23.6875078 59.3475391,23.5686094 59.1410625,23.3609453 C58.93325,23.1544688 58.8146484,22.8681328 58.8146484,22.5742266 C58.8146484,22.2816563 58.93325,21.9953203 59.1410625,21.7875078 C59.348875,21.5795469 59.6353594,21.4609453 59.9279297,21.4609453 C60.2215391,21.4609453 60.5080234,21.5795469 60.7159844,21.7875078 C60.9224609,21.9951719 61.0412109,22.2816563 61.0412109,22.5742266 C61.0412109,22.8666484 60.9223125,23.1544687 60.7159844,23.3609453 C60.5080234,23.5686094 60.2215391,23.6875078 59.9279297,23.6875078 Z" id="Shape" fill="#FFAF10"></path>
                <path d="M63.5799375,23.6875078 C63.2860312,23.6875078 62.9995469,23.5686094 62.7933672,23.3624297 C62.5855547,23.1546172 62.4666562,22.8681328 62.4666562,22.5742266 C62.4666562,22.2816563 62.5855547,21.9953203 62.7933672,21.7875078 C62.9995469,21.5795469 63.2858828,21.4609453 63.5799375,21.4609453 C63.8725078,21.4609453 64.1603281,21.5795469 64.3668047,21.7875078 C64.5743203,21.9951719 64.6932187,22.2816563 64.6932187,22.5742266 C64.6932187,22.8679844 64.5743203,23.1544687 64.3668047,23.3624297 C64.1588438,23.5686094 63.8725078,23.6875078 63.5799375,23.6875078 Z" id="Shape" fill="#02AF8E"></path>
                <g id="Group" transform="translate(15.289062, 43.789062)" fill="#445EA0">
                    <path d="M12.5337656,2.29365625 L1.14178125,2.29365625 C0.526804687,2.29365625 0.0285,1.79535156 0.0285,1.180375 C0.0285,0.565546875 0.526804687,0.06709375 1.14178125,0.06709375 L12.5337656,0.06709375 C13.1487422,0.06709375 13.6470469,0.565546875 13.6470469,1.180375 C13.6470469,1.79535156 13.1485938,2.29365625 12.5337656,2.29365625 Z" id="Shape"></path>
                    <path d="M12.5337656,5.70163281 L1.14178125,5.70163281 C0.526804687,5.70163281 0.0285,5.20332812 0.0285,4.58835156 C0.0285,3.973375 0.526804687,3.47507031 1.14178125,3.47507031 L12.5337656,3.47507031 C13.1487422,3.47507031 13.6470469,3.973375 13.6470469,4.58835156 C13.6470469,5.20332812 13.1485938,5.70163281 12.5337656,5.70163281 Z" id="Shape"></path>
                    <path d="M12.5337656,9.1093125 L1.14178125,9.1093125 C0.526804687,9.1093125 0.0285,8.61100781 0.0285,7.99603125 C0.0285,7.38105469 0.526804687,6.88275 1.14178125,6.88275 L12.5337656,6.88275 C13.1487422,6.88275 13.6470469,7.38105469 13.6470469,7.99603125 C13.6470469,8.61100781 13.1485938,9.1093125 12.5337656,9.1093125 Z" id="Shape"></path>
                    <path d="M6.86063281,12.5169922 L1.14178125,12.5169922 C0.526804687,12.5169922 0.0285,12.0186875 0.0285,11.4037109 C0.0285,10.7887344 0.526804687,10.2904297 1.14178125,10.2904297 L6.86063281,10.2904297 C7.47560937,10.2904297 7.97391406,10.7887344 7.97391406,11.4037109 C7.97391406,12.0186875 7.47546094,12.5169922 6.86063281,12.5169922 Z" id="Shape"></path>
                </g>
                <path d="M16.2745391,4.50552344 C9.92423437,4.50552344 4.75771875,9.67189062 4.75771875,16.0221953 C4.75771875,19.9186797 6.70507031,23.5214062 9.96698437,25.6595 C10.1126016,25.7552422 10.2255625,25.8937344 10.2898359,26.0558281 L11.3127187,29.3183359 L21.2363594,29.3183359 L22.2592422,26.0558281 C22.3235156,25.8937344 22.4363281,25.7552422 22.5822422,25.6595 C25.8440078,23.5214062 27.7913594,19.9186797 27.7913594,16.0221953 C27.7913594,9.67174219 22.6246953,4.50552344 16.2745391,4.50552344 Z" id="Shape" fill="#FFD00D"></path>
                <g id="Group" transform="translate(4.750000, 4.601562)" fill="#FFAF10">
                    <path d="M10.4112578,17.0628906 L10.4112578,24.716625 L12.6378203,24.716625 L12.6378203,17.0628906 C14.8434531,16.5558281 16.4937812,14.5781953 16.4937812,12.2208594 C16.4937812,9.48070312 14.2645469,7.25132031 11.5245391,7.25132031 C8.78438281,7.25132031 6.555,9.48070312 6.555,12.2208594 C6.555,14.5781953 8.20547656,16.5559766 10.4112578,17.0628906 Z M11.5245391,9.47803125 C13.0368203,9.47803125 14.2672187,10.7084297 14.2672187,12.2210078 C14.2672187,13.3369609 13.5964297,14.2973516 12.6378203,14.7252969 L12.6378203,12.5877969 C12.6378203,11.9728203 12.1395156,11.4745156 11.5245391,11.4745156 C10.9095625,11.4745156 10.4112578,11.9728203 10.4112578,12.5877969 L10.4112578,14.7252969 C9.4525,14.2975 8.7815625,13.3368125 8.7815625,12.2210078 C8.7815625,10.7084297 10.0119609,9.47803125 11.5245391,9.47803125 Z" id="Shape"></path>
                    <path d="M6.56257031,24.716625 L9.787375,24.716625 L8.48528125,20.5634922 C8.42100781,20.4013984 8.30819531,20.2629062 8.16242969,20.1671641 C4.90051563,18.0290703 2.95316406,14.4263438 2.95316406,10.5298594 C2.95316406,5.87797656 5.72716406,1.864375 9.70647656,0.0486875 C4.21725781,0.923132813 0.00771875,5.68886719 0.00771875,11.4204844 C0.00771875,15.3169687 1.95507031,18.9196953 5.21698438,21.0577891 C5.36260156,21.1535312 5.4755625,21.2920234 5.53983594,21.4541172 L6.56257031,24.716625 Z" id="Shape"></path>
                </g>
                <path d="M13.1808047,36.9459453 C13.1808047,36.9511406 13.1800625,36.9560391 13.1800625,36.9613828 L13.1800625,38.0360703 C13.1800625,38.8524766 13.8480313,39.5204453 14.6644375,39.5204453 L17.8843438,39.5204453 C18.70075,39.5204453 19.3687188,38.8524766 19.3687188,38.0360703 L19.3687188,36.9613828 C19.3687188,36.9561875 19.3679766,36.9512891 19.3679766,36.9459453 L13.1808047,36.9459453 L13.1808047,36.9459453 Z" id="Shape" fill="#1A2B63"></path>
                <path d="M22.3393984,36.3521953 C22.3393984,36.7603984 22.0054141,37.0943828 21.5972109,37.0943828 L10.9517187,37.0943828 C10.5435156,37.0943828 10.2095312,36.7603984 10.2095312,36.3521953 L10.2095312,29.9117891 C10.2095312,29.5035859 10.5435156,29.1696016 10.9517187,29.1696016 L21.5972109,29.1696016 C22.0054141,29.1696016 22.3393984,29.5035859 22.3393984,29.9117891 L22.3393984,36.3521953 L22.3393984,36.3521953 Z" id="Shape" fill="#445EA0"></path>
                <g id="Group" transform="translate(11.281250, 30.429688)" fill="#293D7C">
                    <path d="M8.84835938,2.35792969 L1.13792187,2.35792969 C0.522945312,2.35792969 0.024640625,1.859625 0.024640625,1.24464844 C0.024640625,0.629671875 0.522945312,0.131367187 1.13792187,0.131367187 L8.84835938,0.131367187 C9.46333594,0.131367187 9.96164063,0.629671875 9.96164063,1.24464844 C9.96164063,1.85947656 9.46333594,2.35792969 8.84835938,2.35792969 Z" id="Shape"></path>
                    <path d="M8.84835938,5.41010156 L1.13792187,5.41010156 C0.522945312,5.41010156 0.024640625,4.91179688 0.024640625,4.29682031 C0.024640625,3.68184375 0.522945312,3.18353906 1.13792187,3.18353906 L8.84835938,3.18353906 C9.46333594,3.18353906 9.96164063,3.68184375 9.96164063,4.29682031 C9.96164063,4.91179688 9.46333594,5.41010156 8.84835938,5.41010156 Z" id="Shape"></path>
                </g>
                <g id="Group" fill="#FFAF10">
                    <path d="M16.2745391,3.40471094 C15.6595625,3.40471094 15.1612578,2.90640625 15.1612578,2.29142969 L15.1612578,1.11328125 C15.1612578,0.498304688 15.6595625,0 16.2745391,0 C16.8895156,0 17.3878203,0.498304688 17.3878203,1.11328125 L17.3878203,2.29128125 C17.3878203,2.90625781 16.8893672,3.40471094 16.2745391,3.40471094 Z" id="Shape"></path>
                    <path d="M26.0959063,7.52741406 C25.8110547,7.52741406 25.5260547,7.41875781 25.3085938,7.20144531 C24.8738203,6.76652344 24.8738203,6.06174219 25.3085938,5.62696875 L26.141625,4.7939375 C26.5765469,4.3593125 27.2813281,4.3593125 27.7161016,4.7939375 C28.150875,5.22885938 28.150875,5.93364063 27.7161016,6.36841406 L26.8830703,7.20144531 C26.6657578,7.41875781 26.3807578,7.52741406 26.0959063,7.52741406 Z" id="Shape"></path>
                    <path d="M31.3036875,17.387375 L30.1253906,17.387375 C29.5104141,17.387375 29.0121094,16.8890703 29.0121094,16.2740937 C29.0121094,15.6592656 29.5104141,15.1608125 30.1253906,15.1608125 L31.3036875,15.1608125 C31.9186641,15.1608125 32.4169688,15.6592656 32.4169688,16.2740937 C32.4169688,16.8889219 31.9185156,17.387375 31.3036875,17.387375 Z" id="Shape"></path>
                    <path d="M26.8360156,28.0419219 C26.5511641,28.0419219 26.2661641,27.9332656 26.0487031,27.7159531 L25.2156719,26.8829219 C24.7808984,26.448 24.7808984,25.7432188 25.2156719,25.3084453 C25.6505938,24.8738203 26.355375,24.8738203 26.7901484,25.3084453 L27.6231797,26.1414766 C28.0579531,26.5763984 28.0579531,27.2811797 27.6231797,27.7159531 C27.4058672,27.9332656 27.1208672,28.0419219 26.8360156,28.0419219 Z" id="Shape"></path>
                    <path d="M5.48817969,27.949 C5.20317969,27.949 4.91832812,27.8403438 4.70086719,27.6228828 C4.26609375,27.1881094 4.26609375,26.4831797 4.70101562,26.0485547 L5.53419531,25.2155234 C5.96896875,24.78075 6.67389844,24.7808984 7.10852344,25.2156719 C7.54329687,25.6504453 7.54329687,26.355375 7.108375,26.7901484 L6.27519531,27.6231797 C6.05803125,27.8403438 5.77303125,27.949 5.48817969,27.949 Z" id="Shape"></path>
                    <path d="M2.29172656,17.2558594 L1.11328125,17.2558594 C0.498304688,17.2558594 0,16.7575547 0,16.1425781 C0,15.5276016 0.498304688,15.0292969 1.11328125,15.0292969 L2.29172656,15.0292969 C2.90670312,15.0292969 3.40500781,15.5276016 3.40500781,16.1425781 C3.40500781,16.7575547 2.90655469,17.2558594 2.29172656,17.2558594 Z" id="Shape"></path>
                    <path d="M6.41428125,7.43434375 C6.12942969,7.43434375 5.84442969,7.3256875 5.62696875,7.108375 L4.79378906,6.27519531 C4.35901562,5.84027344 4.35901562,5.13549219 4.79378906,4.70071875 C5.22871094,4.26609375 5.93349219,4.26609375 6.36826562,4.70071875 L7.20144531,5.53389844 C7.63621875,5.96882031 7.63621875,6.67360156 7.20144531,7.108375 C6.98413281,7.3256875 6.69913281,7.43434375 6.41428125,7.43434375 Z" id="Shape"></path>
                    <path d="M10.9441484,4.43902344 C10.5072969,4.43902344 10.0928594,4.18029688 9.91517969,3.75160938 L9.46422656,2.66326563 C9.22880469,2.09519531 9.49851563,1.444 10.0665859,1.20857813 C10.6342109,0.973453125 11.286,1.24286719 11.5212734,1.8109375 L11.9722266,2.89928125 C12.2076484,3.46735156 11.9379375,4.11854688 11.3698672,4.35396875 C11.2304844,4.41171094 11.0862031,4.43902344 10.9441484,4.43902344 Z" id="Shape"></path>
                    <path d="M21.5946875,4.48934375 C21.4526328,4.48934375 21.3083516,4.46203125 21.1691172,4.40428906 C20.6010469,4.16901562 20.3311875,3.51782031 20.5666094,2.94975 L21.0174141,1.86140625 C21.2528359,1.29333594 21.9043281,1.02332812 22.4719531,1.25889844 C23.0400234,1.49417187 23.3098828,2.14536719 23.0744609,2.7134375 L22.6236562,3.80178125 C22.4459766,4.23046875 22.0315391,4.48934375 21.5946875,4.48934375 Z" id="Shape"></path>
                    <path d="M29.091375,12.0568359 C28.6545234,12.0568359 28.2399375,11.7979609 28.0622578,11.369125 C27.8271328,10.8012031 28.0968438,10.1498594 28.6650625,9.91458594 L29.7537031,9.46378125 C30.3213281,9.22821094 30.9729688,9.49836719 31.2082422,10.0664375 C31.4433672,10.6343594 31.1736563,11.2857031 30.6054375,11.5209766 L29.5167969,11.9717813 C29.3777109,12.0295234 29.2332813,12.0568359 29.091375,12.0568359 Z" id="Shape"></path>
                    <path d="M30.1291016,23.1592188 C29.9871953,23.1592188 29.8429141,23.1319063 29.7036797,23.0743125 L28.6150391,22.6235078 C28.0469687,22.3882344 27.7771094,21.7368906 28.0122344,21.1689688 C28.2475078,20.6008984 28.8987031,20.3310391 29.4667734,20.5661641 L30.5554141,21.0169688 C31.1234844,21.2522422 31.3933437,21.9035859 31.1582187,22.4715078 C30.9805391,22.9001953 30.5659531,23.1592188 30.1291016,23.1592188 Z" id="Shape"></path>
                    <path d="M2.23754687,23.0377969 C1.80069531,23.0377969 1.38625781,22.7790703 1.20857812,22.3502344 C0.97315625,21.7823125 1.24286719,21.1309688 1.81108594,20.8956953 L2.89972656,20.4447422 C3.46764844,20.2094687 4.11899219,20.4790312 4.35426562,21.04725 C4.5896875,21.6151719 4.31997656,22.2665156 3.75175781,22.5017891 L2.66311719,22.9527422 C2.52388281,23.0104844 2.37945312,23.0377969 2.23754687,23.0377969 Z" id="Shape"></path>
                    <path d="M3.37561719,11.9352656 C3.23371094,11.9352656 3.08942969,11.9079531 2.95034375,11.8503594 L1.86155469,11.3997031 C1.29348438,11.1645781 1.023625,10.5133828 1.25860156,9.9453125 C1.49372656,9.37709375 2.14551563,9.10723437 2.71299219,9.34235937 L3.80178125,9.79301562 C4.36985156,10.0281406 4.63971094,10.6793359 4.40458594,11.2474062 C4.22735156,11.6763906 3.81261719,11.9352656 3.37561719,11.9352656 Z" id="Shape"></path>
                </g>
            </g>
        </g>
    </g>
</svg>