<?xml version="1.0" encoding="UTF-8"?>
<svg width="40px" height="40px" viewBox="0 0 40 40" version="1.1" xmlns="http://www.w3.org/2000/svg" xmlns:xlink="http://www.w3.org/1999/xlink">
    <title>1087840</title>
    <g id="Page-1" stroke="none" stroke-width="1" fill="none" fill-rule="evenodd">
        <g id="my-design" transform="translate(-423.000000, -1883.000000)" fill-rule="nonzero">
            <g id="1087840" transform="translate(423.000000, 1883.000000)">
                <path d="M16.4705882,37.124183 C16.4705882,38.2792075 17.4184283,39.2156863 18.5882353,39.2156863 L21.4117647,39.2156863 C22.581227,39.2156863 23.5294118,38.2792075 23.5294118,37.124183 L23.5294118,32.9411765 L16.4705882,32.9411765 L16.4705882,37.124183 Z" id="Shape" fill="#EBEBEB"></path>
                <path d="M13.1597122,26.0879576 C12.5710747,25.7012581 12.015961,25.2629538 11.5012729,24.7787416 C11.061849,26.5014649 9.40110908,27.5938745 7.68055228,27.292289 C5.95966684,26.9907035 4.75215483,25.3959865 4.90169695,23.6223288 C5.05123916,21.8486712 6.50820727,20.4875153 8.25439992,20.4901961 C8.35727177,20.4901961 8.45619966,20.5119772 8.55447026,20.5210248 C7.91653318,18.9919864 7.5875404,17.3476754 7.58786904,15.6862745 L6.7310416,15.6862745 L6.26598182,17.9417988 C6.2196402,18.1666475 6.06615402,18.3529604 5.85712363,18.4380744 C5.64776459,18.5235237 5.41079777,18.4963809 5.22543119,18.366029 L3.3655208,17.0588235 L1.34620832,19.1176471 L2.62504051,21.0136144 C2.75289084,21.2029431 2.77951262,21.4445466 2.69570324,21.657667 C2.61222259,21.8711225 2.42948533,22.0276118 2.20928031,22.0745251 L0,22.5490196 L0,25.2941176 L2.21190963,25.7682771 C2.43211464,25.8155254 2.6148519,25.9720148 2.69866128,26.1851352 C2.78214193,26.3982556 2.75552016,26.6401941 2.62766983,26.8291877 L1.34620832,28.7254902 L3.3655208,30.7843137 L5.22543119,29.4801241 C5.41079777,29.3497722 5.64809324,29.3222943 5.85745236,29.4077436 C6.06681139,29.4928576 6.22029757,29.6795056 6.26663919,29.9043544 L6.7310416,32.1568627 L9.42345824,32.1568627 L9.88786065,29.9010034 C9.93420228,29.6758195 10.0876885,29.4895067 10.2970475,29.4043926 C10.5064066,29.3189434 10.7437021,29.3460861 10.9290687,29.4767731 L12.788979,30.7843137 L14.9019608,28.6299881 C14.6804412,27.578125 14.052364,26.6616402 13.1597122,26.0879576 Z" id="Shape" fill="#C9DFFF"></path>
                <path d="M32.9411765,16.1569095 C32.9404937,10.2905284 28.6695711,5.24992136 22.7613537,4.14269379 C16.8531363,3.03546622 10.970108,6.17261108 8.73916628,11.6207946 C6.50822443,17.0689783 8.55671513,23.2944781 13.6221171,26.4595027 C14.7828604,27.1611452 15.4959857,28.3921725 15.5130054,29.7237663 L15.5130054,32.4705934 C15.5130054,33.5967394 16.4490887,34.5098039 17.6043857,34.5098039 L23.1813998,34.5098039 C24.3363564,34.5098039 25.2727801,33.5967394 25.2727801,32.4705934 L25.2727801,29.7801898 C25.2904806,28.4170652 26.0179024,27.1564985 27.2038348,26.4342781 C30.7827366,24.1813223 32.9435572,20.3106724 32.9411765,16.1569095 L32.9411765,16.1569095 Z" id="Shape" fill="#FFB41F"></path>
                <path d="M36.7544746,8.4952309 L38.8771701,6.90326765 L36.44657,3.66230883 L34.3238743,5.25427208 C33.8870718,5.58163164 33.2959873,5.61360935 32.8262185,5.33537018 C32.3564497,5.05713102 32.1006317,4.52339979 32.177443,3.98307514 L32.5522691,1.35727538 L28.5419272,0.784313725 L28.1671011,3.40978376 C28.0902898,3.9507677 27.6950246,4.39186253 27.1659167,4.52735571 C26.6368087,4.66317871 26.078031,4.46669694 25.7503467,4.0295582 L24.1587371,1.90683071 L20.9181566,4.33746737 L22.5094366,6.46019486 C22.8367912,6.89733368 22.8687685,7.48809741 22.5905335,7.95787323 C22.3122985,8.42764905 21.7785752,8.68347084 21.2382587,8.60665839 L18.6124985,8.23182674 L18.0392157,12.2422289 L20.6656352,12.6170605 C21.2062814,12.6942027 21.6473696,13.0894738 21.7828609,13.6185897 C21.918352,14.1477056 21.7218734,14.7064917 21.2847411,15.0341809 L19.1627048,16.6261441 L21.593305,19.8667732 L23.7153413,18.2754693 C24.1521438,17.9477801 24.743558,17.9154727 25.2136565,18.1937119 C25.6834253,18.471951 25.9395729,19.006012 25.8624319,19.5466663 L25.4843093,22.1718067 L29.4946512,22.745098 L29.8727739,20.118639 C29.9499148,19.5779847 30.34518,19.1372196 30.8742879,19.0017263 C31.403396,18.8659034 31.9621736,19.0627147 32.2895283,19.4995238 L33.8817972,21.621592 L37.1223776,19.1909553 L35.5297791,17.0688872 C35.2020947,16.6320781 35.1697879,16.0406551 35.4480229,15.5705495 C35.7262578,15.1007737 36.2603108,14.8446222 36.800957,14.922094 L39.4267172,15.2972554 L40,11.2868531 L37.3742397,10.9116918 C36.8339232,10.83422 36.3931647,10.4392787 36.2573438,9.91016268 C36.1218526,9.38137648 36.3180016,8.82292011 36.7544746,8.4952309 L36.7544746,8.4952309 Z M29.0199375,16.4903211 C26.4096713,16.4903211 24.2938986,14.3745167 24.2938986,11.7642113 C24.2938986,9.15423568 26.4096713,7.03810154 29.0199375,7.03810154 C31.6302037,7.03810154 33.7459763,9.15423568 33.7459763,11.7642113 C33.7459763,14.3745167 31.6302037,16.4903211 29.0199375,16.4903211 Z" id="Shape" fill="#1CC8EB"></path>
                <polygon id="Shape" fill="#9E9E9E" points="16.4705882 35.2941176 23.5294118 35.2941176 23.5294118 36.8627451 16.4705882 36.8627451"></polygon>
                <g id="Group" fill="#FFAA00">
                    <polygon id="Shape" points="19.17321 29.8190859 20.5359995 29.8190859 20.5359995 31.850402 19.17321 31.850402"></polygon>
                    <path d="M20.5360023,28.4648752 L19.17321,28.4648752 C19.1725446,26.6745794 18.0616184,25.0697604 16.3794251,24.4290229 C13.0260181,23.126058 10.6963668,20.0579242 10.3563349,16.4958475 C10.0163029,12.9337706 11.7234496,9.48509573 14.7704285,7.5787532 L15.4934123,8.72434405 C12.8809556,10.3579269 11.4166888,13.3143118 11.7081448,16.3682289 C11.999268,19.4218155 13.9962071,22.0522112 16.8711738,23.1690383 C19.0797178,24.008477 20.537663,26.115174 20.5360023,28.4648752 L20.5360023,28.4648752 Z" id="Shape"></path>
                    <path d="M33.4824994,25.0793483 L36.889473,25.0793483 C37.2657706,25.0793483 37.5708677,25.3821942 37.5708677,25.7564537 C37.5708677,26.1303825 37.2657706,26.433559 36.889473,26.433559 L33.4824994,26.433559 C33.1062018,26.433559 32.8011046,26.1303825 32.8011046,25.7564537 C32.8011046,25.3821942 33.1062018,25.0793483 33.4824994,25.0793483 Z" id="Shape"></path>
                    <path d="M32.1197099,29.1423111 C32.3605936,28.8550042 32.7901251,28.8159914 33.0792521,29.0553586 L36.1209076,31.5736749 C36.4100346,31.8130422 36.4492946,32.2398698 36.208411,32.5271768 C35.9671946,32.8144837 35.537663,32.8534966 35.2485361,32.6141293 L32.2068805,30.095813 C31.9177535,29.8564457 31.8788262,29.4296181 32.1197099,29.1423111 L32.1197099,29.1423111 Z" id="Shape"></path>
                    <path d="M29.394131,30.4961913 C29.7704286,30.4961913 30.0755257,30.7990372 30.0755257,31.1732967 L30.0755257,34.5588235 C30.0755257,34.9327523 29.7704286,35.2359289 29.394131,35.2359289 C29.0178334,35.2359289 28.7127362,34.9327523 28.7127362,34.5588235 L28.7127362,31.1732967 C28.7127362,30.7990372 29.0178334,30.4961913 29.394131,30.4961913 Z" id="Shape"></path>
                    <path d="M0.59023161,11.3924301 L4.71919084,10.3675149 C5.08450887,10.2769255 5.45415223,10.4974477 5.54531543,10.8601354 C5.63647855,11.2228232 5.41455945,11.5901397 5.04924142,11.6807289 L0.920282183,12.7056444 C0.554964067,12.7962336 0.185320713,12.5757115 0.0941575938,12.2130237 C0.00299438914,11.8503359 0.224913495,11.4830195 0.59023161,11.3924301 Z" id="Shape"></path>
                    <path d="M1.45661428,4.08941227 C1.6752063,3.78524384 2.10074523,3.71515286 2.40684052,3.93236885 L6.06734096,6.53069454 C6.37376894,6.74791045 6.44463664,7.17077072 6.2260447,7.47493915 C6.00745275,7.77910758 5.58191374,7.84952924 5.27581845,7.63198265 L1.61531809,5.03365688 C1.30889011,4.81644096 1.23802234,4.3935807 1.45661428,4.08941227 Z" id="Shape"></path>
                    <path d="M7.55922278,0.0257882353 C7.92387543,-0.0667847651 8.29484964,0.151753618 8.38800907,0.514110791 L9.44403777,4.61873144 C9.53719721,4.98108862 9.31727442,5.35005823 8.95262177,5.44263123 C8.58796912,5.53520423 8.21699492,5.31633517 8.12383549,4.95430859 L7.06780678,0.849687854 C6.97464735,0.487330681 7.19457014,0.118361236 7.55922278,0.0257882353 Z" id="Shape"></path>
                </g>
            </g>
        </g>
    </g>
</svg>