<?xml version="1.0" encoding="UTF-8"?>
<svg width="1100px" height="591px" viewBox="0 0 1100 591" version="1.1" xmlns="http://www.w3.org/2000/svg" xmlns:xlink="http://www.w3.org/1999/xlink">
    <title>Group 3</title>
    <g id="Page-1" stroke="none" stroke-width="1" fill="none" fill-rule="evenodd">
        <g id="my-design" transform="translate(0.000000, -1910.000000)" fill-rule="nonzero">
            <g id="Group-3" transform="translate(-505.000000, 1809.000000)">
                <path d="M524.339517,259.124019 C1217.01139,156.585215 1577.29004,103.877208 1605.17545,101 L1605.17545,692 L505.175455,692 L505.175455,259.124019 C-174.720379,361.662824 -168.332358,361.662824 524.339517,259.124019 Z" id="Path-3-Copy" fill="#F6F9FC"></path>
                <g id="1039333" opacity="0.467020089" transform="translate(1378.304881, 337.128220) rotate(-36.000000) translate(-1378.304881, -337.128220) translate(1110.304881, 115.128220)">
                    <path d="M535.576909,350.161462 C520.695327,385.39244 499.053311,417.065593 472.289617,443.58075 L63.3701378,443.58075 C36.5939593,417.065593 14.9530782,385.368608 0.0703620864,350.13763 L6.25995594,257.465088 L13.5049811,149.009876 C15.711173,115.996439 43.1274195,90.3585374 76.2112185,90.3585374 L459.434917,90.3585374 C492.519851,90.3585374 519.936098,115.996439 522.141155,149.009876 L529.38618,257.465088 L535.576909,350.161462 Z" id="Shape" fill="#C9CACC"></path>
                    <path d="M337.47132,0.677518799 L198.18503,0.677518799 C171.573408,0.677518799 150.000619,22.2503075 150.000619,48.8619295 L150.000619,126.982003 L172.53124,126.982003 L172.53124,80.6133884 C172.53124,67.7847912 182.931211,57.3859558 195.758673,57.3859558 L339.896542,57.3859558 C352.725139,57.3859558 363.123974,67.7859261 363.123974,80.6133884 L363.123974,126.982003 L385.654595,126.982003 L385.654595,48.8630644 C385.654595,22.2514424 364.081807,0.677518799 337.47132,0.677518799 Z" id="Shape" fill="#F0F0F0"></path>
                    <path d="M529.387315,257.466223 L308.064507,367.855257 L227.594112,367.855257 L6.25995594,257.466223 L13.5049811,149.011011 C15.711173,115.997574 43.1274195,90.3596722 76.2112185,90.3596722 L459.434917,90.3596722 C492.519851,90.3596722 519.936098,115.997574 522.141155,149.011011 L529.387315,257.466223 Z" id="Shape" fill="#D4D5DB"></path>
                    <path d="M311.622332,353.553596 L300.179414,399.552242 C298.934459,404.533197 294.464197,408.030874 289.328899,408.030874 L265.944854,408.030874 C260.810692,408.030874 256.327946,404.533197 255.09434,399.552242 L243.638938,353.553596 C241.884425,346.498094 247.220595,339.679781 254.489453,339.679781 L300.771817,339.679781 C308.040675,339.679781 313.377979,346.498094 311.622332,353.553596 Z" id="Shape" fill="#B6B5B0"></path>
                </g>
            </g>
        </g>
    </g>
</svg>