<?xml version="1.0" encoding="UTF-8"?>
<svg width="75px" height="105px" viewBox="0 0 75 105" version="1.1" xmlns="http://www.w3.org/2000/svg" xmlns:xlink="http://www.w3.org/1999/xlink">
    <title>461322</title>
    <g id="Page-1" stroke="none" stroke-width="1" fill="none" fill-rule="evenodd">
        <g id="my-design" transform="translate(-298.000000, -231.000000)" fill-rule="nonzero">
            <g id="461322" transform="translate(298.000000, 231.000000)">
                <path d="M69.825075,0 L5.17694783,0 C2.31801521,0 0,2.3905467 0,5.33824089 L0,95.6230933 C0,98.5707875 2.31781292,100.961538 5.17674554,100.961538 L30.3571188,100.961538 L30.3571188,95.552633 C30.3571188,95.552633 24.1070345,94.3754342 22.250033,83.3507353 C21.4876106,78.8147214 20.2518347,70.0075839 17.3053115,65.8790147 C13.1035929,59.9907745 20.7945728,58.1698335 23.4856066,60.8867445 C26.7499238,64.1824516 30.3571188,72.2610902 30.3571188,75.7207964 L30.3571188,43.2692016 C30.3571188,41.2787472 31.9572148,39.6634688 33.9285088,39.6634688 C35.9016234,39.6634688 37.4998989,41.2789515 37.4998989,43.2692016 L37.4998989,54.0866041 C37.4998989,52.0961498 39.0999949,50.4808713 41.0712889,50.4808713 C43.0444035,50.4808713 44.6426789,52.096354 44.6426789,54.0866041 L44.6426789,59.4953054 C44.6426789,57.504851 46.242775,55.8895726 48.214069,55.8895726 C50.1871836,55.8895726 51.785459,57.5050553 51.785459,59.4953054 L51.785459,63.1010381 C51.785459,61.1105838 53.385555,59.4953054 55.3568491,59.4953054 C57.3299637,59.4953054 58.9282391,61.110788 58.9282391,63.1010381 L58.9282391,70.3125036 L58.9428038,70.3125036 L58.9428038,80.8558255 C58.9428038,93.2723721 59.3748904,90.1443402 55.3570513,95.5528372 L55.3714138,95.5528372 L55.3714138,100.961538 L69.825075,100.961538 C72.6840077,100.961538 75,98.5709918 75,95.6232976 L75,5.33824089 C75,2.3905467 72.6840077,0 69.825075,0" id="Shape" fill="#ECF0F1"></path>
                <path d="M7,10.0961538 L7,85.8173077 L22.9228255,85.8173077 C22.6358508,84.8527161 22.3773298,83.8088822 22.178358,82.6298462 C21.4105178,78.0938354 20.1707548,69.2867037 17.2103632,65.1581374 C12.9870393,59.2699011 20.7160473,57.4489614 23.4197469,60.1658705 C26.6994283,63.4615754 30.3236011,71.5402086 30.3236011,74.9999125 L30.3236011,42.547931 C30.3236011,40.557478 31.9312283,38.9422007 33.9118006,38.9422007 C35.8925761,38.9422007 37.5,40.5576823 37.5,42.547931 L37.5,53.3653263 C37.5,51.3748733 39.1076272,49.7595959 41.0881994,49.7595959 C43.0689749,49.7595959 44.6763989,51.3750775 44.6763989,53.3653263 L44.6763989,58.7740239 C44.6763989,56.7835709 46.284026,55.1682935 48.2645983,55.1682935 C50.2451706,55.1682935 51.8527977,56.7837751 51.8527977,58.7740239 L51.8527977,62.3797542 C51.8527977,60.3893012 53.4604249,58.7740239 55.4409971,58.7740239 C57.4217727,58.7740239 59.0291966,60.3895054 59.0291966,62.3797542 L59.0291966,69.5912149 L59.0436266,69.5912149 L59.0436266,80.1345296 C59.0436266,82.5720483 59.0596825,84.3948261 59.0562275,85.8173077 L68,85.8173077 L68,10.0961538 L7,10.0961538 Z" id="Shape" fill="#35495E"></path>
                <path d="M58.9864228,81.0249466 L58.9864228,70.364503 L58.9720205,70.364503 L58.9720205,63.0729281 C58.9720205,61.0603626 57.3693186,59.4271407 55.3907394,59.4271407 C53.413783,59.4271407 51.8094583,61.0605691 51.8094583,63.0729281 L51.8094583,59.4271407 C51.8094583,57.4145752 50.2067564,55.7813533 48.2281772,55.7813533 C46.2512208,55.7813533 44.6468961,57.4147817 44.6468961,59.4271407 L44.6468961,53.9583563 C44.6468961,51.9457907 43.0441942,50.3125688 41.065615,50.3125688 C39.0886585,50.3125688 37.4843339,51.9459972 37.4843339,53.9583563 L37.4843339,43.0207874 C37.4843339,41.0082219 35.8816319,39.375 33.9030527,39.375 C31.9260963,39.375 30.3217716,41.0084284 30.3217716,43.0207874 L30.3217716,75.8332874 C30.3217716,72.3351487 26.7045864,64.1665611 23.4312285,60.8344498 C20.7327418,58.0873577 13.0202587,59.9285268 17.233817,65.8821772 C20.1885007,70.056609 21.4256705,78.9634402 22.1922331,83.5479843 C24.0545804,94.6951524 30.3217716,95.8854281 30.3217716,95.8854281 L30.3217716,105 L55.4053445,105 L55.4053445,95.8854281 L55.3909423,95.8854281 C59.419706,90.4182957 58.9864228,93.5794237 58.9864228,81.0249466" id="Shape" fill="#FDD7AD"></path>
                <path d="M39.3333333,8.07692308 L37.6666667,8.07692308 C36.7466772,8.07692308 36,7.17229488 36,6.05769231 C36,4.94308973 36.7466772,4.03846154 37.6666667,4.03846154 L39.3333333,4.03846154 C40.2533228,4.03846154 41,4.94308973 41,6.05769231 C41,7.17229488 40.253134,8.07692308 39.3333333,8.07692308" id="Shape" fill="#BDC3C7"></path>
                <g id="Group" transform="translate(37.000000, 91.875000)" fill="#F09372">
                    <path d="M6.72462963,3.60675 L3.45518519,3.60675 C2.55277778,3.60675 1.82037037,2.80814423 1.82037037,1.82417308 C1.82037037,0.840201923 2.55277778,0.0415961538 3.45518519,0.0415961538 L6.72462963,0.0415961538 C7.62703704,0.0415961538 8.35944444,0.840201923 8.35944444,1.82417308 C8.35944444,2.80814423 7.62703704,3.60675 6.72462963,3.60675" id="Shape"></path>
                    <path d="M8.35055556,8.95427885 L1.81981481,8.95427885 C0.917407407,8.95427885 0.185,8.15567308 0.185,7.17170192 C0.185,6.18773077 0.917407407,5.389125 1.81981481,5.389125 L8.35055556,5.389125 C9.25296296,5.389125 9.98537037,6.18773077 9.98537037,7.17170192 C9.98537037,8.15567308 9.25296296,8.95427885 8.35055556,8.95427885" id="Shape"></path>
                </g>
                <g id="Group" transform="translate(16.000000, 23.221154)" fill="#F0C419">
                    <path d="M26.9463051,20.1638736 C25.9551864,20.1638736 25.1507797,19.3489698 25.1507797,18.3449176 C25.1507797,14.3324176 21.9296949,11.0695055 17.9690847,11.0695055 C14.0084746,11.0695055 10.7873898,14.3326236 10.7873898,18.3449176 C10.7873898,19.3489698 9.98298305,20.1638736 8.99186441,20.1638736 C8.00074576,20.1638736 7.19633898,19.3489698 7.19633898,18.3449176 C7.19633898,12.3263736 12.0278644,7.43159341 17.9690847,7.43159341 C23.9101017,7.43159341 28.7416271,12.3261676 28.7416271,18.3449176 C28.7416271,19.3489698 27.9374237,20.1638736 26.9463051,20.1638736" id="Shape"></path>
                    <path d="M34.128,20.1638736 C33.1368814,20.1638736 32.3324746,19.3489698 32.3324746,18.3449176 C32.3324746,10.321978 25.888678,3.79388736 17.9688814,3.79388736 C10.0490847,3.79388736 3.60528814,10.321772 3.60528814,18.3449176 C3.60528814,19.3489698 2.80088136,20.1638736 1.80976271,20.1638736 C0.818644068,20.1638736 0.0142372881,19.3489698 0.0142372881,18.3449176 C0.0142372881,8.31572802 8.06867797,0.156181319 17.968678,0.156181319 C27.868678,0.156181319 35.9231188,8.31572802 35.9231188,18.3449176 C35.9235254,19.3489698 35.1191186,20.1638736 34.128,20.1638736" id="Shape"></path>
                </g>
                <g id="Group" transform="translate(36.000000, 52.500000)" fill="#F09372">
                    <path d="M1.82083146,16.1042706 C0.835280899,16.1042706 0.0353932584,15.3125493 0.0353932584,14.3370607 L0.0353932584,1.96719206 C0.0353932584,0.991703415 0.835280899,0.199982178 1.82083146,0.199982178 C2.80638202,0.199982178 3.60626966,0.991703415 3.60626966,1.96719206 L3.60626966,14.3370607 C3.60626966,15.3125493 2.80638202,16.1042706 1.82083146,16.1042706" id="Shape"></path>
                    <path d="M8.96217978,19.6384901 C7.97662921,19.6384901 7.17674157,18.8467689 7.17674157,17.8712803 L7.17674157,7.26862152 C7.17674157,6.29313287 7.97662921,5.50141164 8.96217978,5.50141164 C9.94773034,5.50141164 10.747618,6.29313287 10.747618,7.26862152 L10.747618,17.8714804 C10.747618,18.8469691 9.94773034,19.6384901 8.96217978,19.6384901" id="Shape"></path>
                    <path d="M16.1037303,23.1729099 C15.1181798,23.1729099 14.3182921,22.3811887 14.3182921,21.4057 L14.3182921,10.8028411 C14.3182921,9.82735245 15.1181798,9.03563122 16.1037303,9.03563122 C17.0892809,9.03563122 17.8891685,9.82735245 17.8891685,10.8028411 L17.8891685,21.4057 C17.8889663,22.3811887 17.0892809,23.1729099 16.1037303,23.1729099" id="Shape"></path>
                </g>
            </g>
        </g>
    </g>
</svg>