<?xml version="1.0" encoding="UTF-8"?>
<svg width="42px" height="49px" viewBox="0 0 42 49" version="1.1" xmlns="http://www.w3.org/2000/svg" xmlns:xlink="http://www.w3.org/1999/xlink">
    <title>230294</title>
    <g id="Page-1" stroke="none" stroke-width="1" fill="none" fill-rule="evenodd">
        <g id="my-design" transform="translate(-444.000000, -948.000000)" fill-rule="nonzero">
            <g id="Why-us" transform="translate(-505.000000, 794.000000)">
                <g id="230294" transform="translate(949.000000, 154.000000)">
                    <path d="M33.1999937,49 L9.80000633,49 C8.80550829,49 8,48.3287455 8,47.5 C8,46.6712545 8.80550829,46 9.80000633,46 L33.1999937,46 C34.1944917,46 35,46.6712545 35,47.5 C35,48.3287455 34.1944917,49 33.1999937,49" id="Shape" fill="#B2B5C8"></path>
                    <g id="Group" transform="translate(18.000000, 22.000000)" fill="#868BA5">
                        <path d="M7.11847471,21.2209144 C7.11847471,19.183463 5.53270039,17.5316148 3.57674708,17.5316148 C1.62079377,17.5316148 0.0350194553,19.183463 0.0350194553,21.2209144 C0.0350194553,23.2583658 1.62079377,24.910214 3.57674708,24.910214 C5.53270039,24.910214 7.11847471,23.2582685 7.11847471,21.2209144" id="Shape"></path>
                        <path d="M23.9416342,3.69669261 C23.9416342,1.65924125 22.3558599,0.00739299611 20.3999066,0.00739299611 C18.4439533,0.00739299611 16.858179,1.65924125 16.858179,3.69669261 C16.858179,5.73414397 18.4439533,7.38599222 20.3999066,7.38599222 C22.3558599,7.38599222 23.9416342,5.73414397 23.9416342,3.69669261" id="Shape"></path>
                    </g>
                    <path d="M1.30044177,8.69357842 L0,9.99392412 L13.0060666,23 L14.3065084,21.6995573 C17.8978305,18.1082326 17.8978305,12.2848062 14.3065084,8.69348143 L14.3065084,8.69348143 C10.7151862,5.10215669 4.89176394,5.10215669 1.30044177,8.69357842" id="Shape" fill="#B2B5C8"></path>
                    <path d="M2.54592286,12 C1.55356736,14.0799218 1.91261748,16.6429355 3.63527108,18.3646944 C5.35703934,20.0873386 7.92006695,20.4464852 10,19.4540367 L2.54592286,12 Z" id="Shape" fill="#ECBA16"></path>
                    <g id="Group" transform="translate(19.000000, 6.000000)" fill="#B2B5C8">
                        <path d="M17.9657143,14.9789452 L2.32580952,0.0546575342 C2.10638095,0.630191781 1.77228571,1.17206849 1.31171429,1.63569863 L0.00961904762,2.93223288 L15.3262857,17.5792055 C15.664,16.2926438 16.6761905,15.2889589 17.9657143,14.9789452" id="Shape"></path>
                        <path d="M15.320381,19.4159863 L2.45171429,32.2427671 L2.45171429,32.2427671 C2.69819048,32.2991507 2.93390476,32.3827671 3.15790476,32.4873836 C3.17685714,32.4964932 3.194,32.5082877 3.21295238,32.5173973 C3.42066667,32.6192329 3.61657143,32.7383288 3.79990476,32.8765068 C3.81161905,32.8846575 3.82161905,32.894726 3.83238095,32.9028767 C4.022,33.0493014 4.19542857,33.2138493 4.35342857,33.3946986 C4.35428571,33.3955616 4.3552381,33.3965205 4.3552381,33.3973836 C4.51961905,33.5864795 4.66228571,33.7910137 4.78504762,34.0119452 C4.94942857,34.3073836 5.08209524,34.6229589 5.15980952,34.9620274 L17.8604762,22.0025342 C16.6152381,21.6616438 15.6445714,20.6752192 15.320381,19.4159863" id="Shape"></path>
                    </g>
                    <path d="M21.5764212,1.3140727 C19.6783162,-0.438024235 16.6022114,-0.438024235 14.7040038,1.3140727 L10,5.70382446 C11.5822838,6.10038105 13.078975,6.86387784 14.3211437,8.01040042 L14.3211437,8.01040042 C15.5642348,9.15786921 16.3913564,10.5394303 16.8208568,12 L21.5764212,7.6578426 C23.4745263,5.90565104 23.4745263,3.06616964 21.5764212,1.3140727" id="Shape" fill="#868BA5"></path>
                </g>
            </g>
        </g>
    </g>
</svg>