<?xml version="1.0" encoding="UTF-8"?>
<svg width="161px" height="150px" viewBox="0 0 161 150" version="1.1" xmlns="http://www.w3.org/2000/svg" xmlns:xlink="http://www.w3.org/1999/xlink">
    <title>230311</title>
    <g id="Page-1" stroke="none" stroke-width="1" fill="none" fill-rule="evenodd">
        <g id="my-design" transform="translate(-772.000000, -1023.000000)" fill-rule="nonzero">
            <g id="Why-us" transform="translate(-505.000000, 794.000000)">
                <g id="230311" transform="translate(1277.000000, 229.000000)">
                    <path d="M161,95 L0,95 L0,9.77955141 C0,4.37843592 4.34982158,0 9.71563923,0 L151.284361,0 C156.650178,0 161,4.37843592 161,9.77955141 L161,95 L161,95 Z" id="Shape" fill="#38454F"></path>
                    <path d="M113,150 L47,150 C47,143.925234 51.9251872,139 57.9998962,139 L101.999792,139 C108.074813,138.999688 113,143.925234 113,150" id="Shape" fill="#E8EDEE"></path>
                    <polygon id="Shape" fill="#B0B6BB" points="100 139 61 139 66.5713835 117 94.4286165 117"></polygon>
                    <path d="M151.284342,117 L9.7156582,117 C4.34983008,117 0,112.690715 0,107.374903 L0,95 L161,95 L161,107.374903 C161,112.690715 156.65017,117 151.284342,117" id="Shape" fill="#E8EDEE"></path>
                    <g id="Group" transform="translate(31.000000, 8.000000)" fill="#25AE88">
                        <path d="M13.9185169,49.4173446 C6.13105618,49.4173446 0.0324044944,43.6597458 0.0324044944,36.3111864 C0.0324044944,34.7969774 1.27667416,33.5680226 2.80975281,33.5680226 C4.34283146,33.5680226 5.58710112,34.7969774 5.58710112,36.3111864 C5.58710112,40.6561864 9.1698427,43.9313277 13.9188315,43.9313277 C16.8292584,43.9313277 18.9704719,43.155113 20.2842697,41.6216384 C20.9952809,40.7904237 21.3231011,39.7152825 21.2035506,38.5932203 C21.0758202,37.3863277 20.4481798,36.2670621 19.4760449,35.5237853 L4.9512809,24.365 C2.79339326,22.7053672 1.39370787,20.2148305 1.11024719,17.5319492 C0.832449438,14.909661 1.61582022,12.3722034 3.31249438,10.389096 C5.9592809,7.30039548 9.82516854,5.52858757 13.9188315,5.52858757 C21.5757303,5.52858757 27.8049438,11.6811299 27.8049438,19.2437853 C27.8049438,20.7579944 26.5606742,21.9869492 25.0275955,21.9869492 C23.4945169,21.9869492 22.2502472,20.7579944 22.2502472,19.2437853 C22.2502472,14.7067514 18.5120899,11.0146045 13.9185169,11.0146045 C11.4633258,11.0146045 9.1418427,12.0788701 7.55307865,13.9333333 C6.84206742,14.764548 6.51424719,15.8396893 6.63379775,16.9642373 C6.76152809,18.1683333 7.38916854,19.2875989 8.36130337,20.0336723 L22.8860674,31.189661 C25.0439551,32.8492938 26.4436404,35.3398305 26.7271011,38.0227119 C27.0048989,40.6477966 26.2215281,43.1852542 24.5220225,45.165565 C22.1058427,47.9882768 18.5397753,49.4173446 13.9185169,49.4173446" id="Shape"></path>
                        <path d="M13.9185169,11.0149153 C12.3854382,11.0149153 11.1411685,9.78596045 11.1411685,8.27175141 L11.1411685,2.7860452 C11.1411685,1.27183616 12.3854382,0.0428813559 13.9185169,0.0428813559 C15.4515955,0.0428813559 16.6958652,1.27183616 16.6958652,2.7860452 L16.6958652,8.27206215 C16.6958652,9.78627119 15.4515955,11.0149153 13.9185169,11.0149153" id="Shape"></path>
                        <path d="M13.9185169,54.9036723 C12.3854382,54.9036723 11.1411685,53.6747175 11.1411685,52.1605085 L11.1411685,47.2835311 C11.1411685,45.769322 12.3854382,44.5403672 13.9185169,44.5403672 C15.4515955,44.5403672 16.6958652,45.769322 16.6958652,47.2835311 L16.6958652,52.1605085 C16.6958652,53.6747175 15.4515955,54.9036723 13.9185169,54.9036723" id="Shape"></path>
                    </g>
                    <g id="Group" transform="translate(97.000000, 19.000000)" fill="#DD691D">
                        <path d="M44.9074737,5.62336641 L22.6061053,5.62336641 C21.0672632,5.62336641 19.8183158,4.39481787 19.8183158,2.8811094 C19.8183158,1.36740092 21.0672632,0.138852388 22.6061053,0.138852388 L44.9074737,0.138852388 C46.4491579,0.138852388 47.6952632,1.36740092 47.6952632,2.8811094 C47.6949474,4.39512851 46.4491579,5.62336641 44.9074737,5.62336641" id="Shape"></path>
                        <path d="M44.9074737,22.0762872 L3.09252632,22.0762872 C1.55368421,22.0762872 0.304736842,20.8477387 0.304736842,19.3340302 C0.304736842,17.8203217 1.55368421,16.5917732 3.09252632,16.5917732 L44.9074737,16.5917732 C46.4491579,16.5917732 47.6952632,17.8203217 47.6952632,19.3340302 C47.6952632,20.8477387 46.4491579,22.0762872 44.9074737,22.0762872" id="Shape"></path>
                        <path d="M44.9074737,38.5288974 L30.9691579,38.5288974 C29.4303158,38.5288974 28.1813684,37.3003488 28.1813684,35.7866404 C28.1813684,34.2729319 29.4303158,33.0443834 30.9691579,33.0443834 L44.9074737,33.0443834 C46.4491579,33.0443834 47.6952632,34.2729319 47.6952632,35.7866404 C47.6952632,37.3003488 46.4491579,38.5288974 44.9074737,38.5288974" id="Shape"></path>
                        <path d="M44.9074737,54.9818182 L22.6061053,54.9818182 C21.0672632,54.9818182 19.8183158,53.7532696 19.8183158,52.2395612 C19.8183158,50.7258527 21.0672632,49.4973042 22.6061053,49.4973042 L44.9074737,49.4973042 C46.4491579,49.4973042 47.6952632,50.7258527 47.6952632,52.2395612 C47.6949474,53.7532696 46.4491579,54.9818182 44.9074737,54.9818182" id="Shape"></path>
                    </g>
                    <g id="Group" transform="translate(31.000000, 69.000000)" fill="#ECBA16">
                        <path d="M25.1216842,16.7827778 L2.82031579,16.7827778 C1.28147368,16.7827778 0.0325263158,15.5376852 0.0325263158,14.0035926 C0.0325263158,12.4695 1.28147368,11.2244074 2.82031579,11.2244074 L25.1216842,11.2244074 C26.6605263,11.2244074 27.9094737,12.4695 27.9094737,14.0035926 C27.9094737,15.5376852 26.6605263,16.7827778 25.1216842,16.7827778" id="Shape"></path>
                        <path d="M39.06,16.7827778 C38.3352632,16.7827778 37.6105263,16.4770926 37.0806316,15.9768519 C36.9691579,15.8380185 36.8576842,15.6988704 36.7462105,15.560037 C36.6347368,15.3931852 36.5510526,15.2266481 36.4954737,15.0597963 C36.4117895,14.8929444 36.3562105,14.7264074 36.3281053,14.5595556 C36.3003158,14.365 36.2722105,14.1981481 36.2722105,14.0035926 C36.2722105,13.6421852 36.3558947,13.2810926 36.4951579,12.9477037 C36.6344211,12.6143148 36.8295789,12.3086296 37.0806316,12.0306481 C38.1397895,11.002463 39.9798947,11.002463 41.0390526,12.0306481 C41.2897895,12.3086296 41.4849474,12.6143148 41.6245263,12.9477037 C41.7637895,13.2810926 41.8474737,13.6425 41.8474737,14.0035926 C41.8474737,14.1981481 41.8196842,14.365 41.7915789,14.5595556 C41.7637895,14.7264074 41.7078947,14.8929444 41.6242105,15.0597963 C41.5683158,15.2266481 41.4849474,15.3931852 41.3734737,15.560037 C41.262,15.6988704 41.1505263,15.8380185 41.0390526,15.9768519 C40.5094737,16.4770926 39.7847368,16.7827778 39.06,16.7827778" id="Shape"></path>
                        <path d="M39.06,5.66666667 L30.6969474,5.66666667 C29.1581053,5.66666667 27.9091579,4.42157407 27.9091579,2.88748148 C27.9091579,1.35338889 29.1581053,0.108296296 30.6969474,0.108296296 L39.06,0.108296296 C40.5988421,0.108296296 41.8477895,1.35338889 41.8477895,2.88748148 C41.8474737,4.42157407 40.5985263,5.66666667 39.06,5.66666667" id="Shape"></path>
                        <path d="M8.39557895,5.66666667 L2.82031579,5.66666667 C1.28147368,5.66666667 0.0325263158,4.42157407 0.0325263158,2.88748148 C0.0325263158,1.35338889 1.28147368,0.108296296 2.82031579,0.108296296 L8.39557895,0.108296296 C9.93442105,0.108296296 11.1833684,1.35338889 11.1833684,2.88748148 C11.1833684,4.42157407 9.93442105,5.66666667 8.39557895,5.66666667" id="Shape"></path>
                        <path d="M19.5464211,5.66666667 C18.8216842,5.66666667 18.0969474,5.36098148 17.5670526,4.86074074 C17.4555789,4.72190741 17.3163158,4.58275926 17.2326316,4.44392593 C17.1211579,4.27707407 17.0374737,4.11053704 16.9818947,3.94368519 C16.8982105,3.77683333 16.8426316,3.6102963 16.8145263,3.44344444 C16.7867368,3.24888889 16.7586316,3.08203704 16.7586316,2.88748148 C16.7586316,2.16498148 17.0652632,1.44248148 17.5670526,0.914222222 C18.2081053,0.275148148 19.1838947,-0.030537037 20.1037895,0.164018519 C20.2711579,0.191722222 20.4382105,0.247444444 20.6055789,0.33087037 C20.7729474,0.386592593 20.94,0.469703704 21.1073684,0.580833333 C21.2466316,0.691962963 21.3862105,0.803092593 21.5254737,0.914222222 C22.0272632,1.44216667 22.3338947,2.16466667 22.3338947,2.88748148 C22.3338947,3.08203704 22.3061053,3.24888889 22.278,3.44344444 C22.2502105,3.6102963 22.1943158,3.77683333 22.1106316,3.94368519 C22.0547368,4.11053704 21.9713684,4.27707407 21.8598947,4.44392593 C21.7484211,4.58275926 21.6369474,4.72190741 21.5254737,4.86074074 C21.3862105,4.97187037 21.2466316,5.083 21.1073684,5.19412963 C20.94,5.30525926 20.7729474,5.38868519 20.6055789,5.44409259 C20.4382105,5.52751852 20.2711579,5.58292593 20.1037895,5.61094444 C19.9086316,5.63896296 19.7412632,5.66666667 19.5464211,5.66666667" id="Shape"></path>
                    </g>
                    <path d="M141.5,81 C140.117467,81 139,79.7492566 139,78.2082016 L139,16.7917984 C139,15.2507434 140.117467,14 141.5,14 C142.882533,14 144,15.2507434 144,16.7917984 L144,78.2085178 C143.999717,79.7492566 142.882533,81 141.5,81" id="Shape" fill="#DD691D"></path>
                </g>
            </g>
        </g>
    </g>
</svg>